# This file uses centimeters as units for non-parametric coordinates.

mtllib Barrel.mtl
g default
v -0.127989 0.332513 -0.014573
v -0.138732 0.332513 -0.025316
v -0.138732 0.342666 -0.025316
v -0.127989 0.342666 -0.014573
v -0.153407 0.332513 -0.029248
v -0.153407 0.342666 -0.029248
v -0.168082 0.332513 -0.025316
v -0.168082 0.342666 -0.025316
v -0.178825 0.332513 -0.014573
v -0.178825 0.342666 -0.014573
v -0.182757 0.332513 0.000102
v -0.182757 0.342666 0.000102
v -0.178825 0.332513 0.014778
v -0.178825 0.342666 0.014778
v -0.168082 0.332513 0.025521
v -0.168082 0.342666 0.025521
v -0.153407 0.332513 0.029453
v -0.153407 0.342666 0.029453
v -0.138732 0.332513 0.025521
v -0.138732 0.342666 0.025521
v -0.127989 0.332513 0.014778
v -0.127989 0.342666 0.014778
v -0.124057 0.332513 0.000102
v -0.124057 0.342666 0.000102
v -0.168082 0.342666 0.000102
v -0.138732 0.342666 0.000102
v -0.153407 0.342666 0.000102
vt 0.397672 0.484287
vt 0.418594 0.484030
vt 0.418758 0.498007
vt 0.397847 0.498265
vt 0.439521 0.483793
vt 0.439666 0.497771
vt 0.460453 0.483595
vt 0.460569 0.497572
vt 0.481392 0.483445
vt 0.481470 0.497423
vt 0.502337 0.483358
vt 0.502371 0.497337
vt 0.523283 0.483345
vt 0.523271 0.497322
vt 0.544225 0.483397
vt 0.544173 0.497375
vt 0.565161 0.483507
vt 0.565077 0.497484
vt 0.586091 0.483653
vt 0.585988 0.497629
vt 0.607013 0.483815
vt 0.606901 0.497794
vt 0.627931 0.483989
vt 0.627816 0.497967
vt 0.376755 0.484556
vt 0.376934 0.498534
vt 0.456869 0.429712
vt 0.477740 0.429710
vt 0.477740 0.465860
vt 0.462462 0.450582
vt 0.540351 0.429712
vt 0.534760 0.450582
vt 0.519482 0.465862
vt 0.519480 0.429712
vt 0.498610 0.429710
vt 0.498610 0.471452
vt 0.477738 0.393560
vt 0.462460 0.408840
vt 0.498612 0.387968
vt 0.519484 0.393562
vt 0.534762 0.408841
vn 0.707105 0.000000 -0.707109
vn 0.707105 0.000000 -0.707109
vn 0.707105 0.000000 -0.707109
vn 0.707105 0.000000 -0.707109
vn 0.258781 0.000000 -0.965936
vn 0.258781 0.000000 -0.965936
vn 0.258781 0.000000 -0.965936
vn 0.258781 0.000000 -0.965936
vn -0.258781 0.000000 -0.965936
vn -0.258781 0.000000 -0.965936
vn -0.258781 0.000000 -0.965936
vn -0.258781 0.000000 -0.965936
vn -0.707107 0.000000 -0.707107
vn -0.707107 0.000000 -0.707107
vn -0.707107 0.000000 -0.707107
vn -0.707107 0.000000 -0.707107
vn -0.965936 0.000000 -0.258781
vn -0.965936 0.000000 -0.258781
vn -0.965936 0.000000 -0.258781
vn -0.965936 0.000000 -0.258781
vn -0.965936 0.000000 0.258781
vn -0.965936 0.000000 0.258781
vn -0.965936 0.000000 0.258781
vn -0.965936 0.000000 0.258781
vn -0.707107 0.000000 0.707107
vn -0.707107 0.000000 0.707107
vn -0.707107 0.000000 0.707107
vn -0.707107 0.000000 0.707107
vn -0.258781 0.000000 0.965936
vn -0.258781 0.000000 0.965936
vn -0.258781 0.000000 0.965936
vn -0.258781 0.000000 0.965936
vn 0.258781 0.000000 0.965936
vn 0.258781 0.000000 0.965936
vn 0.258781 0.000000 0.965936
vn 0.258781 0.000000 0.965936
vn 0.707107 0.000000 0.707107
vn 0.707107 0.000000 0.707107
vn 0.707107 0.000000 0.707107
vn 0.707107 0.000000 0.707107
vn 0.965936 0.000000 0.258781
vn 0.965936 0.000000 0.258781
vn 0.965936 0.000000 0.258781
vn 0.965936 0.000000 0.258781
vn 0.965936 0.000000 -0.258781
vn 0.965936 0.000000 -0.258781
vn 0.965936 0.000000 -0.258781
vn 0.965936 0.000000 -0.258781
vn 0.000000 1.000000 0.000000
vn 0.000000 1.000000 0.000000
vn 0.000000 1.000000 0.000000
vn 0.000000 1.000000 0.000000
vn 0.000000 1.000000 0.000000
vn 0.000000 1.000000 0.000000
vn 0.000000 1.000000 0.000000
vn 0.000000 1.000000 0.000000
vn 0.000000 1.000000 0.000000
vn 0.000000 1.000000 0.000000
vn 0.000000 1.000000 0.000000
vn 0.000000 1.000000 0.000000
vn 0.000000 1.000000 0.000000
vn 0.000000 1.000000 0.000000
vn 0.000000 1.000000 0.000000
vn 0.000000 1.000000 0.000000
vn 0.000000 1.000000 0.000000
vn 0.000000 1.000000 0.000000
vn 0.000000 1.000000 0.000000
vn 0.000000 1.000000 0.000000
vn 0.000000 1.000000 0.000000
vn 0.000000 1.000000 0.000000
vn 0.000000 1.000000 0.000000
vn 0.000000 1.000000 0.000000
vn 0.000000 1.000000 0.000000
vn 0.000000 1.000000 0.000000
vn 0.000000 1.000000 0.000000
vn 0.000000 1.000000 0.000000
vn 0.000000 1.000000 0.000000
vn 0.000000 1.000000 0.000000
vn 0.000000 1.000000 0.000000
vn 0.000000 1.000000 0.000000
s off
g Barrel:barrelpCylinder5 barrel1
usemtl initialShadingGroup
f 1/1/1 2/2/2 3/3/3 4/4/4
f 2/2/5 5/5/6 6/6/7 3/3/8
f 5/5/9 7/7/10 8/8/11 6/6/12
f 7/7/13 9/9/14 10/10/15 8/8/16
f 9/9/17 11/11/18 12/12/19 10/10/20
f 11/11/21 13/13/22 14/14/23 12/12/24
f 13/13/25 15/15/26 16/16/27 14/14/28
f 15/15/29 17/17/30 18/18/31 16/16/32
f 17/17/33 19/19/34 20/20/35 18/18/36
f 19/19/37 21/21/38 22/22/39 20/20/40
f 21/21/41 23/23/42 24/24/43 22/22/44
f 23/25/45 1/1/46 4/4/47 24/26/48
f 12/27/49 25/28/50 8/29/51 10/30/52
f 24/31/53 4/32/54 3/33/55 26/34/56
f 27/35/57 26/34/58 3/33/59 6/36/60
f 25/28/61 27/35/62 6/36/63 8/29/64
f 16/37/65 25/28/66 12/27/67 14/38/68
f 18/39/69 27/35/70 25/28/71 16/37/72
f 20/40/73 26/34/74 27/35/75 18/39/76
f 24/31/77 26/34/78 20/40/79 22/41/80
g default
v 0.169475 0.332642 -0.005310
v 0.165513 0.332642 -0.009272
v 0.165513 0.337744 -0.009272
v 0.169475 0.337744 -0.005310
v 0.160101 0.332642 -0.010722
v 0.160101 0.337744 -0.010722
v 0.154688 0.332642 -0.009272
v 0.154688 0.337744 -0.009272
v 0.150726 0.332642 -0.005310
v 0.150726 0.337744 -0.005310
v 0.149276 0.332642 0.000102
v 0.149276 0.337744 0.000102
v 0.150726 0.332642 0.005515
v 0.150726 0.337744 0.005515
v 0.154688 0.332642 0.009477
v 0.154688 0.337744 0.009477
v 0.160101 0.332642 0.010927
v 0.160101 0.337744 0.010927
v 0.165513 0.332642 0.009477
v 0.165513 0.337744 0.009477
v 0.169475 0.332642 0.005515
v 0.169475 0.337744 0.005515
v 0.170925 0.332642 0.000102
v 0.170925 0.337744 0.000102
v 0.165513 0.337744 0.000102
v 0.154688 0.337744 0.000102
v 0.160101 0.337744 0.000102
vt 0.506255 0.305310
vt 0.513572 0.305281
vt 0.513615 0.311956
vt 0.506269 0.311986
vt 0.520890 0.305217
vt 0.520961 0.311892
vt 0.528208 0.305121
vt 0.528304 0.311795
vt 0.535531 0.305002
vt 0.535641 0.311676
vt 0.542858 0.304874
vt 0.542973 0.311549
vt 0.454940 0.305206
vt 0.462272 0.305210
vt 0.462267 0.311886
vt 0.454937 0.311882
vt 0.469606 0.305216
vt 0.469597 0.311890
vt 0.476942 0.305230
vt 0.476925 0.311906
vt 0.484277 0.305255
vt 0.484254 0.311930
vt 0.491608 0.305285
vt 0.491587 0.311962
vt 0.498934 0.305308
vt 0.498925 0.311984
vt 0.516247 0.347985
vt 0.514090 0.356030
vt 0.508199 0.361919
vt 0.508201 0.347985
vt 0.508203 0.334051
vt 0.514092 0.339939
vt 0.492110 0.347983
vt 0.492109 0.361917
vt 0.486220 0.356028
vt 0.484065 0.347983
vt 0.492110 0.334049
vt 0.486222 0.339938
vt 0.500158 0.331894
vt 0.500156 0.347983
vt 0.500154 0.364074
vn 0.707075 0.000000 -0.707138
vn 0.707075 0.000000 -0.707138
vn 0.707075 0.000000 -0.707138
vn 0.707075 0.000000 -0.707138
vn 0.258781 0.000000 -0.965936
vn 0.258781 0.000000 -0.965936
vn 0.258781 0.000000 -0.965936
vn 0.258781 0.000000 -0.965936
vn -0.258781 0.000000 -0.965936
vn -0.258781 0.000000 -0.965936
vn -0.258781 0.000000 -0.965936
vn -0.258781 0.000000 -0.965936
vn -0.707107 0.000000 -0.707107
vn -0.707107 0.000000 -0.707107
vn -0.707107 0.000000 -0.707107
vn -0.707107 0.000000 -0.707107
vn -0.965936 0.000000 -0.258781
vn -0.965936 0.000000 -0.258781
vn -0.965936 0.000000 -0.258781
vn -0.965936 0.000000 -0.258781
vn -0.965936 0.000000 0.258781
vn -0.965936 0.000000 0.258781
vn -0.965936 0.000000 0.258781
vn -0.965936 0.000000 0.258781
vn -0.707107 0.000000 0.707107
vn -0.707107 0.000000 0.707107
vn -0.707107 0.000000 0.707107
vn -0.707107 0.000000 0.707107
vn -0.258781 0.000000 0.965936
vn -0.258781 0.000000 0.965936
vn -0.258781 0.000000 0.965936
vn -0.258781 0.000000 0.965936
vn 0.258781 0.000000 0.965936
vn 0.258781 0.000000 0.965936
vn 0.258781 0.000000 0.965936
vn 0.258781 0.000000 0.965936
vn 0.707107 0.000000 0.707107
vn 0.707107 0.000000 0.707107
vn 0.707107 0.000000 0.707107
vn 0.707107 0.000000 0.707107
vn 0.965936 0.000000 0.258781
vn 0.965936 0.000000 0.258781
vn 0.965936 0.000000 0.258781
vn 0.965936 0.000000 0.258781
vn 0.965936 0.000000 -0.258781
vn 0.965936 0.000000 -0.258781
vn 0.965936 0.000000 -0.258781
vn 0.965936 0.000000 -0.258781
vn 0.000000 1.000000 0.000000
vn 0.000000 1.000000 0.000000
vn 0.000000 1.000000 0.000000
vn 0.000000 1.000000 0.000000
vn 0.000000 1.000000 0.000000
vn 0.000000 1.000000 0.000000
vn 0.000000 1.000000 0.000000
vn 0.000000 1.000000 0.000000
vn 0.000000 1.000000 0.000000
vn 0.000000 1.000000 0.000000
vn 0.000000 1.000000 0.000000
vn 0.000000 1.000000 0.000000
vn 0.000000 1.000000 0.000000
vn 0.000000 1.000000 0.000000
vn 0.000000 1.000000 0.000000
vn 0.000000 1.000000 0.000000
vn 0.000000 1.000000 0.000000
vn 0.000000 1.000000 0.000000
vn 0.000000 1.000000 0.000000
vn 0.000000 1.000000 0.000000
vn 0.000000 1.000000 0.000000
vn 0.000000 1.000000 0.000000
vn 0.000000 1.000000 0.000000
vn 0.000000 1.000000 0.000000
vn 0.000000 1.000000 0.000000
vn 0.000000 1.000000 0.000000
vn 0.000000 1.000000 0.000000
vn 0.000000 1.000000 0.000000
vn 0.000000 1.000000 0.000000
vn 0.000000 1.000000 0.000000
vn 0.000000 1.000000 0.000000
vn 0.000000 1.000000 0.000000
s off
g barrel1 Barrel:barrelpCylinder6
usemtl initialShadingGroup
f 28/42/81 29/43/82 30/44/83 31/45/84
f 29/43/85 32/46/86 33/47/87 30/44/88
f 32/46/89 34/48/90 35/49/91 33/47/92
f 34/48/93 36/50/94 37/51/95 35/49/96
f 36/50/97 38/52/98 39/53/99 37/51/100
f 38/54/101 40/55/102 41/56/103 39/57/104
f 40/55/105 42/58/106 43/59/107 41/56/108
f 42/58/109 44/60/110 45/61/111 43/59/112
f 44/60/113 46/62/114 47/63/115 45/61/116
f 46/62/117 48/64/118 49/65/119 47/63/120
f 48/64/121 50/66/122 51/67/123 49/65/124
f 50/66/125 28/42/126 31/45/127 51/67/128
f 51/68/129 31/69/130 30/70/131 52/71/132
f 51/68/133 52/71/134 47/72/135 49/73/136
f 53/74/137 35/75/138 37/76/139 39/77/140
f 43/78/141 53/74/142 39/77/143 41/79/144
f 45/80/145 54/81/146 53/74/147 43/78/148
f 54/81/149 33/82/150 35/75/151 53/74/152
f 52/71/153 30/70/154 33/82/155 54/81/156
f 47/72/157 52/71/158 54/81/159 45/80/160
g default
v 0.220528 -0.346222 -0.080158
v 0.179779 -0.346222 -0.150737
v 0.117347 -0.346222 -0.203124
v 0.040764 -0.346222 -0.230998
v -0.040735 -0.346222 -0.230998
v -0.117318 -0.346222 -0.203124
v -0.179749 -0.346222 -0.150738
v -0.220499 -0.346222 -0.080158
v -0.234651 -0.346222 0.000102
v -0.220499 -0.346222 0.080363
v -0.179749 -0.346222 0.150943
v -0.117318 -0.346222 0.203329
v -0.040735 -0.346222 0.231203
v 0.040764 -0.346222 0.231203
v 0.117347 -0.346222 0.203329
v 0.179779 -0.346222 0.150943
v 0.220528 -0.346222 0.080363
v 0.234680 -0.346222 0.000102
v 0.220528 0.346444 -0.080158
v 0.179779 0.346444 -0.150737
v 0.117347 0.346444 -0.203124
v 0.040764 0.346444 -0.230998
v -0.040735 0.346444 -0.230998
v -0.117318 0.346444 -0.203124
v -0.179749 0.346444 -0.150738
v -0.220499 0.346444 -0.080158
v -0.234651 0.346444 0.000102
v -0.220499 0.346444 0.080363
v -0.179749 0.346444 0.150943
v -0.117318 0.346444 0.203329
v -0.040735 0.346444 0.231203
v 0.040764 0.346444 0.231203
v 0.117347 0.346444 0.203329
v 0.179779 0.346444 0.150943
v 0.220528 0.346444 0.080363
v 0.234680 0.346444 0.000102
v 0.219161 0.346444 0.000102
v 0.205945 0.346444 -0.074850
v 0.167891 0.346444 -0.140762
v 0.109588 0.346444 -0.189684
v 0.038069 0.346444 -0.215715
v -0.038040 0.346444 -0.215715
v -0.109559 0.346444 -0.189684
v -0.167861 0.346444 -0.140762
v -0.205915 0.346444 -0.074850
v -0.219132 0.346444 0.000102
v -0.205915 0.346444 0.075055
v -0.167861 0.346444 0.140967
v -0.109559 0.346444 0.189889
v -0.038040 0.346444 0.215919
v 0.038069 0.346444 0.215919
v 0.109588 0.346444 0.189889
v 0.167891 0.346444 0.140967
v 0.205945 0.346444 0.075055
v 0.219161 0.334355 0.000102
v 0.205945 0.334355 -0.074850
v 0.167891 0.334355 -0.140762
v 0.109588 0.334355 -0.189684
v 0.038069 0.334355 -0.215715
v -0.038040 0.334355 -0.215715
v -0.109559 0.334355 -0.189684
v -0.167861 0.334355 -0.140762
v -0.205915 0.334355 -0.074850
v -0.219132 0.334355 0.000102
v -0.205915 0.334355 0.075055
v -0.167861 0.334355 0.140967
v -0.109559 0.334355 0.189889
v -0.038040 0.334355 0.215919
v 0.038069 0.334355 0.215919
v 0.109588 0.334355 0.189889
v 0.167891 0.334355 0.140967
v 0.205945 0.334355 0.075055
v 0.209239 -0.346222 0.076254
v 0.222667 -0.346222 0.000102
v 0.170576 -0.346222 0.143220
v 0.111341 -0.346222 0.192925
v 0.038678 -0.346222 0.219372
v -0.038649 -0.346222 0.219372
v -0.111311 -0.346222 0.192925
v -0.170547 -0.346222 0.143220
v -0.209210 -0.346222 0.076254
v -0.222638 -0.346222 0.000102
v -0.209210 -0.346222 -0.076049
v -0.170547 -0.346222 -0.143016
v -0.111311 -0.346222 -0.192720
v -0.038649 -0.346222 -0.219167
v 0.038678 -0.346222 -0.219167
v 0.111341 -0.346222 -0.192720
v 0.170576 -0.346222 -0.143016
v 0.209239 -0.346222 -0.076049
v 0.209239 -0.338612 0.076254
v 0.222667 -0.338612 0.000102
v 0.170576 -0.338612 0.143220
v 0.111341 -0.338612 0.192925
v 0.038678 -0.338612 0.219372
v -0.038649 -0.338612 0.219372
v -0.111311 -0.338612 0.192925
v -0.170547 -0.338612 0.143220
v -0.209210 -0.338612 0.076254
v -0.222638 -0.338612 0.000102
v -0.209210 -0.338612 -0.076049
v -0.170547 -0.338612 -0.143016
v -0.111311 -0.338612 -0.192720
v -0.038649 -0.338612 -0.219167
v 0.038678 -0.338612 -0.219167
v 0.111341 -0.338612 -0.192720
v 0.170576 -0.338612 -0.143016
v 0.209239 -0.338612 -0.076049
v -0.234651 0.173277 0.000102
v -0.220499 0.173277 -0.080158
v -0.179749 0.173277 -0.150738
v -0.117318 0.173277 -0.203124
v -0.040735 0.173277 -0.230998
v 0.040764 0.173277 -0.230998
v 0.117347 0.173277 -0.203124
v 0.179779 0.173277 -0.150737
v 0.220528 0.173277 -0.080158
v 0.234680 0.173277 0.000102
v 0.220528 0.173277 0.080363
v 0.179779 0.173277 0.150943
v 0.117347 0.173277 0.203329
v 0.040764 0.173277 0.231203
v -0.040735 0.173277 0.231203
v -0.117318 0.173277 0.203329
v -0.179749 0.173277 0.150943
v -0.220499 0.173277 0.080363
v -0.234651 0.138644 0.000102
v -0.220499 0.138644 -0.080158
v -0.179749 0.138644 -0.150738
v -0.117318 0.138644 -0.203124
v -0.040735 0.138644 -0.230998
v 0.040764 0.138644 -0.230998
v 0.117347 0.138644 -0.203124
v 0.179779 0.138644 -0.150737
v 0.220528 0.138644 -0.080158
v 0.234680 0.138644 0.000102
v 0.220528 0.138644 0.080363
v 0.179779 0.138644 0.150943
v 0.117347 0.138644 0.203329
v 0.040764 0.138644 0.231203
v -0.040735 0.138644 0.231203
v -0.117318 0.138644 0.203329
v -0.179749 0.138644 0.150943
v -0.220499 0.138644 0.080363
v -0.234651 -0.173055 0.000102
v -0.220499 -0.173055 -0.080158
v -0.179749 -0.173055 -0.150738
v -0.117318 -0.173055 -0.203124
v -0.040735 -0.173055 -0.230998
v 0.040764 -0.173055 -0.230998
v 0.117347 -0.173055 -0.203124
v 0.179779 -0.173055 -0.150737
v 0.220528 -0.173055 -0.080158
v 0.234680 -0.173055 0.000102
v 0.220528 -0.173055 0.080363
v 0.179779 -0.173055 0.150943
v 0.117347 -0.173055 0.203329
v 0.040764 -0.173055 0.231203
v -0.040735 -0.173055 0.231203
v -0.117318 -0.173055 0.203329
v -0.179749 -0.173055 0.150943
v -0.220499 -0.173055 0.080363
v 0.220528 -0.207689 -0.080158
v 0.234680 -0.207689 0.000102
v 0.220528 -0.207689 0.080363
v 0.179779 -0.207689 0.150943
v 0.117347 -0.207689 0.203329
v 0.040764 -0.207689 0.231203
v -0.040735 -0.207689 0.231203
v -0.117318 -0.207689 0.203329
v -0.179749 -0.207689 0.150943
v -0.220499 -0.207689 0.080363
v -0.234651 -0.207689 0.000102
v -0.220499 -0.207689 -0.080158
v -0.179749 -0.207689 -0.150738
v -0.117318 -0.207689 -0.203124
v -0.040735 -0.207689 -0.230998
v 0.040764 -0.207689 -0.230998
v 0.117347 -0.207689 -0.203124
v 0.179779 -0.207689 -0.150737
v -0.239271 0.147678 0.000102
v -0.224840 0.147678 -0.081738
v -0.239271 0.164244 0.000102
v -0.224840 0.164244 -0.081738
v -0.183289 0.147678 -0.153707
v -0.183289 0.164244 -0.153707
v -0.119628 0.147678 -0.207125
v -0.119628 0.164244 -0.207125
v -0.041537 0.147678 -0.235548
v -0.041537 0.164244 -0.235548
v 0.041566 0.147678 -0.235548
v 0.041566 0.164244 -0.235548
v 0.119658 0.147678 -0.207125
v 0.119658 0.164244 -0.207125
v 0.183318 0.147678 -0.153707
v 0.183318 0.164244 -0.153707
v 0.224870 0.147678 -0.081738
v 0.224870 0.164244 -0.081738
v 0.239300 0.147678 0.000102
v 0.239300 0.164244 0.000102
v 0.224870 0.147678 0.081943
v 0.224870 0.164244 0.081943
v 0.183318 0.147678 0.153912
v 0.183318 0.164244 0.153912
v 0.119657 0.147678 0.207330
v 0.119657 0.164244 0.207330
v 0.041566 0.147678 0.235753
v 0.041566 0.164244 0.235753
v -0.041537 0.147678 0.235753
v -0.041537 0.164244 0.235753
v -0.119628 0.147678 0.207330
v -0.119628 0.164244 0.207330
v -0.183289 0.147678 0.153912
v -0.183289 0.164244 0.153912
v -0.224840 0.147678 0.081943
v -0.224840 0.164244 0.081943
v 0.224870 -0.200534 -0.081738
v 0.239300 -0.200534 0.000102
v 0.224870 -0.180210 -0.081738
v 0.239300 -0.180210 0.000102
v 0.224870 -0.200534 0.081943
v 0.224870 -0.180210 0.081943
v 0.183318 -0.200534 0.153912
v 0.183318 -0.180210 0.153912
v 0.119657 -0.200534 0.207330
v 0.119657 -0.180210 0.207330
v 0.041566 -0.200534 0.235753
v 0.041566 -0.180210 0.235753
v -0.041537 -0.200534 0.235753
v -0.041537 -0.180210 0.235753
v -0.119628 -0.200534 0.207330
v -0.119628 -0.180210 0.207330
v -0.183289 -0.200534 0.153912
v -0.183289 -0.180210 0.153912
v -0.224840 -0.200534 0.081943
v -0.224840 -0.180210 0.081943
v -0.239271 -0.200534 0.000102
v -0.239271 -0.180210 0.000102
v -0.224840 -0.200534 -0.081738
v -0.224840 -0.180210 -0.081738
v -0.183289 -0.200534 -0.153707
v -0.183289 -0.180210 -0.153707
v -0.119628 -0.200534 -0.207125
v -0.119628 -0.180210 -0.207125
v -0.041537 -0.200534 -0.235548
v -0.041537 -0.180210 -0.235548
v 0.041566 -0.200534 -0.235548
v 0.041566 -0.180210 -0.235548
v 0.119658 -0.200534 -0.207125
v 0.119658 -0.180210 -0.207125
v 0.183318 -0.200534 -0.153707
v 0.183318 -0.180210 -0.153707
v 0.038069 0.334355 0.140967
v 0.038069 0.334355 0.075055
v 0.038069 0.334355 0.000102
v 0.038069 0.334355 -0.074850
v 0.038069 0.334355 -0.140762
v -0.038040 0.334355 -0.140762
v -0.038040 0.334355 -0.074850
v -0.038040 0.334355 0.000102
v -0.038040 0.334355 0.075055
v -0.038040 0.334355 0.140967
v -0.038649 -0.338612 0.143220
v 0.038678 -0.338612 0.143221
v 0.038678 -0.338612 0.076254
v -0.038649 -0.338612 0.076254
v -0.038649 -0.338612 0.000102
v 0.038678 -0.338612 0.000102
v 0.038678 -0.338612 -0.076049
v -0.038649 -0.338612 -0.076049
v -0.038649 -0.338612 -0.143016
v 0.038678 -0.338612 -0.143016
v -0.127989 0.332513 -0.014573
v -0.138732 0.332513 -0.025316
v -0.153407 0.332513 -0.029248
v -0.168082 0.332513 -0.025316
v -0.178825 0.332513 -0.014573
v -0.182757 0.332513 0.000102
v -0.178825 0.332513 0.014778
v -0.168082 0.332513 0.025521
v -0.153407 0.332513 0.029453
v -0.138732 0.332513 0.025521
v -0.127989 0.332513 0.014778
v -0.124057 0.332513 0.000102
v -0.127989 0.342666 -0.014573
v -0.138732 0.342666 -0.025316
v -0.153407 0.342666 -0.029248
v -0.168082 0.342666 -0.025316
v -0.178825 0.342666 -0.014573
v -0.182757 0.342666 0.000102
v -0.178825 0.342666 0.014778
v -0.168082 0.342666 0.025521
v -0.153407 0.342666 0.029453
v -0.138732 0.342666 0.025521
v -0.127989 0.342666 0.014778
v -0.124057 0.342666 0.000102
v -0.168082 0.342666 0.000102
v -0.153407 0.342666 0.000102
v -0.138732 0.342666 0.000102
v 0.169475 0.332642 -0.005310
v 0.165513 0.332642 -0.009272
v 0.160101 0.332642 -0.010722
v 0.154688 0.332642 -0.009272
v 0.150726 0.332642 -0.005310
v 0.149276 0.332642 0.000102
v 0.150726 0.332642 0.005515
v 0.154688 0.332642 0.009477
v 0.160101 0.332642 0.010927
v 0.165513 0.332642 0.009477
v 0.169475 0.332642 0.005515
v 0.170925 0.332642 0.000102
v 0.169475 0.337744 -0.005310
v 0.165513 0.337744 -0.009272
v 0.160101 0.337744 -0.010722
v 0.154688 0.337744 -0.009272
v 0.150726 0.337744 -0.005310
v 0.149276 0.337744 0.000102
v 0.150726 0.337744 0.005515
v 0.154688 0.337744 0.009477
v 0.160101 0.337744 0.010927
v 0.165513 0.337744 0.009477
v 0.169475 0.337744 0.005515
v 0.170925 0.337744 0.000102
v 0.160101 0.337744 0.000102
v 0.154688 0.337744 0.000102
v 0.165513 0.337744 0.000102
vt 0.063836 0.529709
vt 0.118214 0.529663
vt 0.118236 0.622006
vt 0.063524 0.622087
vt 0.172669 0.529451
vt 0.172926 0.621787
vt 0.227185 0.529167
vt 0.227572 0.621502
vt 0.281734 0.528859
vt 0.282179 0.621197
vt 0.336296 0.528555
vt 0.336763 0.620899
vt 0.390862 0.528263
vt 0.391326 0.620606
vt 0.445424 0.527983
vt 0.445880 0.620329
vt 0.499984 0.527716
vt 0.500428 0.620062
vt 0.554544 0.527459
vt 0.554974 0.619806
vt 0.609105 0.527215
vt 0.609528 0.619559
vt 0.663671 0.526982
vt 0.664093 0.619324
vt 0.718234 0.526761
vt 0.718676 0.619099
vt 0.772784 0.526541
vt 0.773286 0.618875
vt 0.827301 0.526302
vt 0.827930 0.618635
vt 0.881754 0.525991
vt 0.882618 0.618330
vt 0.936129 0.525515
vt 0.937329 0.617886
vt 0.990460 0.524812
vt 0.991848 0.617204
vt 0.009501 0.529530
vt 0.009003 0.621931
vt 0.813769 0.430648
vt 0.931255 0.430363
vt 0.878282 0.474285
vt 0.813773 0.498212
vt 0.249968 0.176495
vt 0.249983 0.234004
vt 0.183257 0.234004
vt 0.183270 0.176495
vt 0.432980 0.299516
vt 0.419725 0.373020
vt 0.407158 0.368327
vt 0.419564 0.299516
vt 0.381742 0.437334
vt 0.371561 0.428601
vt 0.324120 0.484831
vt 0.317444 0.473173
vt 0.254031 0.510795
vt 0.251689 0.497620
vt 0.179203 0.510795
vt 0.181546 0.497620
vt 0.109116 0.484830
vt 0.115794 0.473171
vt 0.051494 0.437335
vt 0.061676 0.428602
vt 0.013512 0.373021
vt 0.026079 0.368329
vt 0.000258 0.299517
vt 0.013675 0.299517
vt 0.013513 0.226012
vt 0.026080 0.230705
vt 0.051494 0.161696
vt 0.061676 0.170429
vt 0.109115 0.114200
vt 0.115792 0.125858
vt 0.179203 0.088236
vt 0.181546 0.101412
vt 0.254031 0.088237
vt 0.251689 0.101413
vt 0.324120 0.114200
vt 0.317444 0.125858
vt 0.381742 0.161696
vt 0.371561 0.170429
vt 0.419725 0.226011
vt 0.407158 0.230703
vt 0.397952 0.364803
vt 0.409692 0.299516
vt 0.364197 0.422091
vt 0.312567 0.464586
vt 0.249966 0.488045
vt 0.183269 0.488045
vt 0.120670 0.464585
vt 0.069040 0.422091
vt 0.035285 0.364804
vt 0.023546 0.299517
vt 0.035286 0.234229
vt 0.069041 0.176941
vt 0.120670 0.134445
vt 0.183270 0.110988
vt 0.249966 0.110988
vt 0.312567 0.134445
vt 0.364197 0.176940
vt 0.397952 0.234228
vt 0.994727 0.303707
vt 0.981616 0.377032
vt 0.971735 0.373373
vt 0.984187 0.303707
vt 0.943970 0.441319
vt 0.935952 0.434487
vt 0.886631 0.488871
vt 0.881380 0.479729
vt 0.816703 0.514669
vt 0.814864 0.504314
vt 0.742120 0.514669
vt 0.743959 0.504314
vt 0.672196 0.488869
vt 0.677445 0.479727
vt 0.614854 0.441317
vt 0.622874 0.434484
vt 0.577213 0.377028
vt 0.587095 0.373370
vt 0.564103 0.303705
vt 0.574644 0.303705
vt 0.577214 0.230380
vt 0.587096 0.234039
vt 0.614857 0.166092
vt 0.622876 0.172923
vt 0.672198 0.118540
vt 0.677449 0.127683
vt 0.742125 0.092744
vt 0.743964 0.103099
vt 0.816708 0.092746
vt 0.814867 0.103100
vt 0.886633 0.118541
vt 0.881384 0.127683
vt 0.943976 0.166093
vt 0.935957 0.172924
vt 0.981618 0.230383
vt 0.971736 0.234041
vt 0.965868 0.371145
vt 0.977901 0.303707
vt 0.745052 0.498212
vt 0.680544 0.474282
vt 0.627572 0.430361
vt 0.592962 0.371141
vt 0.580930 0.303705
vt 0.592963 0.236268
vt 0.627574 0.177048
vt 0.680547 0.133129
vt 0.745056 0.109201
vt 0.813776 0.109202
vt 0.878284 0.133130
vt 0.931257 0.177049
vt 0.965869 0.236269
vt 0.447124 0.877155
vt 0.501667 0.876896
vt 0.502221 0.992331
vt 0.447682 0.992590
vt 0.392577 0.877410
vt 0.393144 0.992842
vt 0.338016 0.877661
vt 0.338605 0.993090
vt 0.283436 0.877908
vt 0.284073 0.993333
vt 0.228827 0.878163
vt 0.229560 0.993585
vt 0.174179 0.878443
vt 0.175084 0.993863
vt 0.119486 0.878788
vt 0.120665 0.994216
vt 0.064774 0.879264
vt 0.066312 0.994727
vt 0.010255 0.879961
vt 0.011985 0.995441
vt 0.938563 0.875067
vt 0.993084 0.875240
vt 0.992461 0.990732
vt 0.938132 0.990539
vt 0.883847 0.875116
vt 0.883779 0.990552
vt 0.829154 0.875295
vt 0.829358 0.990720
vt 0.774507 0.875540
vt 0.774881 0.990963
vt 0.719896 0.875810
vt 0.720368 0.991238
vt 0.665316 0.876089
vt 0.665837 0.991518
vt 0.610756 0.876363
vt 0.611298 0.991795
vt 0.556209 0.876632
vt 0.556761 0.992066
vt 0.445996 0.645040
vt 0.500547 0.644777
vt 0.501547 0.852515
vt 0.447001 0.852779
vt 0.391438 0.645309
vt 0.392446 0.853044
vt 0.336864 0.645584
vt 0.337877 0.853311
vt 0.282266 0.645862
vt 0.283280 0.853583
vt 0.227634 0.646143
vt 0.228650 0.853856
vt 0.172961 0.646422
vt 0.173977 0.854134
vt 0.118244 0.646689
vt 0.119259 0.854424
vt 0.063519 0.646923
vt 0.064533 0.854738
vt 0.008993 0.647168
vt 0.010008 0.855024
vt 0.937574 0.642724
vt 0.992099 0.642440
vt 0.993092 0.850298
vt 0.938567 0.850538
vt 0.882849 0.643011
vt 0.883839 0.850750
vt 0.828133 0.643272
vt 0.829121 0.850985
vt 0.773460 0.643517
vt 0.774448 0.851232
vt 0.718827 0.643763
vt 0.719817 0.851483
vt 0.664230 0.644010
vt 0.665220 0.851738
vt 0.609657 0.644262
vt 0.610649 0.851996
vt 0.555098 0.644517
vt 0.556095 0.852255
vt 0.447035 0.859457
vt 0.501581 0.859196
vt 0.501635 0.870189
vt 0.447090 0.870449
vt 0.392482 0.859718
vt 0.392539 0.870707
vt 0.337913 0.859980
vt 0.337974 0.870963
vt 0.283319 0.860243
vt 0.283386 0.871219
vt 0.228691 0.860511
vt 0.228765 0.871478
vt 0.174019 0.860790
vt 0.174100 0.871759
vt 0.119285 0.861098
vt 0.119378 0.872084
vt 0.064447 0.861476
vt 0.064550 0.872503
vt 0.009292 0.861879
vt 0.009401 0.873095
vt 0.938718 0.857276
vt 0.993874 0.857148
vt 0.993874 0.868365
vt 0.938722 0.868306
vt 0.883879 0.857426
vt 0.883891 0.868413
vt 0.829145 0.857642
vt 0.829167 0.868611
vt 0.774472 0.857886
vt 0.774503 0.868856
vt 0.719843 0.858146
vt 0.719882 0.869122
vt 0.665248 0.858407
vt 0.665294 0.869391
vt 0.610680 0.858672
vt 0.610729 0.869660
vt 0.556127 0.858933
vt 0.556179 0.869927
vt 0.008214 0.627707
vt 0.063365 0.627751
vt 0.063372 0.641284
vt 0.008216 0.641416
vt 0.937543 0.623550
vt 0.992691 0.622975
vt 0.992820 0.636682
vt 0.937666 0.637081
vt 0.882721 0.623940
vt 0.882827 0.637429
vt 0.828001 0.624230
vt 0.828094 0.637705
vt 0.773340 0.624473
vt 0.773423 0.637951
vt 0.718718 0.624703
vt 0.718794 0.638189
vt 0.664129 0.624935
vt 0.664198 0.638427
vt 0.609560 0.625177
vt 0.609627 0.638674
vt 0.555003 0.625425
vt 0.555069 0.638925
vt 0.500454 0.625684
vt 0.500519 0.639186
vt 0.445905 0.625947
vt 0.445970 0.639450
vt 0.391349 0.626224
vt 0.391413 0.639723
vt 0.336780 0.626508
vt 0.336841 0.640001
vt 0.282189 0.626802
vt 0.282245 0.640289
vt 0.227572 0.627099
vt 0.227618 0.640576
vt 0.172908 0.627380
vt 0.172943 0.640856
vt 0.118189 0.627617
vt 0.118211 0.641106
vt 0.183269 0.422538
vt 0.249968 0.422538
vt 0.249990 0.299518
vt 0.249983 0.365031
vt 0.183255 0.365031
vt 0.183248 0.299518
vt 0.745057 0.430647
vt 0.745043 0.303706
vt 0.745048 0.371285
vt 0.813787 0.303706
vt 0.813780 0.371285
vt 0.745060 0.176765
vt 0.745049 0.236127
vt 0.813773 0.176766
vt 0.813782 0.236127
vn 0.866009 0.000000 -0.500029
vn 0.866009 0.000000 -0.500029
vn 0.866009 0.000000 -0.500029
vn 0.866009 0.000000 -0.500029
vn 0.642775 0.000000 -0.766055
vn 0.642775 0.000000 -0.766055
vn 0.341978 0.000000 -0.939708
vn 0.341978 0.000000 -0.939708
vn 0.000000 0.000000 -1.000000
vn 0.000000 0.000000 -1.000000
vn -0.341978 0.000000 -0.939708
vn -0.341978 0.000000 -0.939708
vn -0.642775 0.000000 -0.766055
vn -0.642775 0.000000 -0.766055
vn -0.866009 0.000000 -0.500029
vn -0.866009 0.000000 -0.500029
vn -0.984810 0.000000 -0.173637
vn -0.984810 0.000000 -0.173637
vn -0.984810 0.000000 0.173637
vn -0.984810 0.000000 0.173637
vn -0.866009 0.000000 0.500029
vn -0.866009 0.000000 0.500029
vn -0.642775 0.000000 0.766055
vn -0.642775 0.000000 0.766055
vn -0.341978 0.000000 0.939708
vn -0.341978 0.000000 0.939708
vn 0.000000 0.000000 1.000000
vn 0.000000 0.000000 1.000000
vn 0.341978 0.000000 0.939708
vn 0.341978 0.000000 0.939708
vn 0.642775 0.000000 0.766055
vn 0.642775 0.000000 0.766055
vn 0.866009 0.000000 0.500029
vn 0.866009 0.000000 0.500029
vn 0.984810 0.000000 0.173637
vn 0.984810 0.000000 0.173637
vn 0.000000 -1.000000 0.000000
vn 0.000000 -1.000000 0.000000
vn 0.000000 -1.000000 0.000000
vn 0.000000 -1.000000 0.000000
vn 0.000000 1.000000 0.000000
vn 0.000000 1.000000 0.000000
vn 0.000000 1.000000 0.000000
vn 0.000000 1.000000 0.000000
vn 0.000000 1.000000 0.000000
vn 0.000000 1.000000 0.000000
vn 0.000000 1.000000 0.000000
vn 0.000000 1.000000 0.000000
vn 0.000000 1.000000 0.000000
vn 0.000000 1.000000 0.000000
vn 0.000000 1.000000 0.000000
vn 0.000000 1.000000 0.000000
vn 0.000000 1.000000 0.000000
vn 0.000000 1.000000 0.000000
vn 0.000000 1.000000 0.000000
vn 0.000000 1.000000 0.000000
vn 0.000000 1.000000 0.000000
vn 0.000000 1.000000 0.000000
vn 0.000000 1.000000 0.000000
vn 0.000000 1.000000 0.000000
vn 0.000000 1.000000 0.000000
vn 0.000000 1.000000 0.000000
vn 0.000000 1.000000 0.000000
vn 0.000000 1.000000 0.000000
vn 0.000000 1.000000 0.000000
vn 0.000000 1.000000 0.000000
vn 0.000000 1.000000 0.000000
vn 0.000000 1.000000 0.000000
vn 0.000000 1.000000 0.000000
vn 0.000000 1.000000 0.000000
vn 0.000000 1.000000 0.000000
vn 0.000000 1.000000 0.000000
vn 0.000000 1.000000 0.000000
vn 0.000000 1.000000 0.000000
vn 0.000000 1.000000 0.000000
vn 0.000000 1.000000 0.000000
vn 0.000000 1.000000 0.000000
vn 0.000000 1.000000 0.000000
vn 0.000000 1.000000 0.000000
vn 0.000000 1.000000 0.000000
vn 0.000000 1.000000 0.000000
vn 0.000000 1.000000 0.000000
vn -0.984810 0.000000 0.173637
vn -0.984810 0.000000 0.173637
vn 0.000000 1.000000 0.000000
vn -0.866022 0.000000 0.500006
vn 0.000000 1.000000 0.000000
vn -0.642775 0.000000 0.766055
vn 0.000000 1.000000 0.000000
vn -0.341978 0.000000 0.939708
vn 0.000000 1.000000 0.000000
vn 0.000000 0.000000 1.000000
vn 0.000000 1.000000 0.000000
vn 0.341978 0.000000 0.939708
vn 0.000000 1.000000 0.000000
vn 0.642775 0.000000 0.766055
vn 0.000000 1.000000 0.000000
vn 0.866009 0.000000 0.500029
vn 0.000000 1.000000 0.000000
vn 0.984810 0.000000 0.173637
vn 0.000000 1.000000 0.000000
vn 0.984810 0.000000 -0.173637
vn 0.000000 1.000000 0.000000
vn 0.866009 0.000000 -0.500029
vn 0.000000 1.000000 0.000000
vn 0.642775 0.000000 -0.766055
vn 0.000000 1.000000 0.000000
vn 0.341978 0.000000 -0.939708
vn 0.000000 1.000000 0.000000
vn 0.000000 0.000000 -1.000000
vn 0.000000 1.000000 0.000000
vn -0.341978 0.000000 -0.939708
vn 0.000000 1.000000 0.000000
vn -0.642775 0.000000 -0.766055
vn 0.000000 1.000000 0.000000
vn -0.866022 0.000000 -0.500006
vn 0.984810 0.000000 0.173637
vn 0.866009 0.000000 0.500029
vn 0.000000 -1.000000 0.000000
vn 0.000000 -1.000000 0.000000
vn 0.642775 0.000000 0.766055
vn 0.000000 -1.000000 0.000000
vn 0.341978 0.000000 0.939708
vn 0.000000 -1.000000 0.000000
vn 0.000000 0.000000 1.000000
vn 0.000000 -1.000000 0.000000
vn -0.341978 0.000000 0.939708
vn 0.000000 -1.000000 0.000000
vn -0.642775 0.000000 0.766055
vn 0.000000 -1.000000 0.000000
vn -0.866009 0.000000 0.500029
vn 0.000000 -1.000000 0.000000
vn -0.984810 0.000000 0.173637
vn 0.000000 -1.000000 0.000000
vn -0.984810 0.000000 -0.173637
vn 0.000000 -1.000000 0.000000
vn -0.866009 0.000000 -0.500029
vn 0.000000 -1.000000 0.000000
vn -0.642775 0.000000 -0.766055
vn 0.000000 -1.000000 0.000000
vn -0.341978 0.000000 -0.939708
vn 0.000000 -1.000000 0.000000
vn 0.000000 0.000000 -1.000000
vn 0.000000 -1.000000 0.000000
vn 0.341978 0.000000 -0.939708
vn 0.000000 -1.000000 0.000000
vn 0.642775 0.000000 -0.766055
vn 0.000000 -1.000000 0.000000
vn 0.866009 0.000000 -0.500029
vn 0.000000 -1.000000 0.000000
vn 0.866009 0.000000 -0.500029
vn 0.000000 -1.000000 0.000000
vn 0.000000 -1.000000 0.000000
vn 0.000000 -1.000000 0.000000
vn -0.984810 0.000000 -0.173637
vn -0.984810 0.000000 -0.173637
vn 0.000000 -1.000000 0.000000
vn 0.000000 -1.000000 0.000000
vn 0.000000 -1.000000 0.000000
vn 0.000000 -1.000000 0.000000
vn 0.000000 -1.000000 0.000000
vn 0.000000 -1.000000 0.000000
vn 0.000000 -1.000000 0.000000
vn 0.000000 0.000000 -1.000000
vn 0.000000 -1.000000 0.000000
vn 0.341978 0.000000 -0.939708
vn 0.000000 -1.000000 0.000000
vn 0.642775 0.000000 -0.766055
vn 0.000000 -1.000000 0.000000
vn 0.866022 0.000000 -0.500006
vn 0.000000 -1.000000 0.000000
vn 0.984810 0.000000 -0.173637
vn 0.000000 -1.000000 0.000000
vn 0.984810 0.000000 0.173637
vn 0.000000 -1.000000 0.000000
vn 0.866009 0.000000 0.500029
vn 0.000000 -1.000000 0.000000
vn 0.642775 0.000000 0.766055
vn 0.000000 -1.000000 0.000000
vn 0.341978 0.000000 0.939708
vn 0.000000 -1.000000 0.000000
vn 0.000000 0.000000 1.000000
vn 0.000000 -1.000000 0.000000
vn -0.341978 0.000000 0.939708
vn 0.000000 -1.000000 0.000000
vn -0.642775 0.000000 0.766055
vn 0.000000 -1.000000 0.000000
vn -0.866022 0.000000 0.500006
vn -0.984810 0.000000 -0.173637
vn -0.984810 0.000000 -0.173637
vn 0.000000 1.000000 0.000000
vn 0.000000 1.000000 0.000000
vn -0.866009 0.000000 -0.500029
vn 0.000000 1.000000 0.000000
vn -0.642775 0.000000 -0.766055
vn 0.000000 1.000000 0.000000
vn -0.341978 0.000000 -0.939708
vn 0.000000 1.000000 0.000000
vn 0.000000 0.000000 -1.000000
vn 0.000000 1.000000 0.000000
vn 0.341978 0.000000 -0.939708
vn 0.000000 1.000000 0.000000
vn 0.642775 0.000000 -0.766055
vn 0.000000 1.000000 0.000000
vn 0.866009 0.000000 -0.500029
vn 0.000000 1.000000 0.000000
vn 0.984810 0.000000 -0.173637
vn 0.000000 1.000000 0.000000
vn 0.984810 0.000000 0.173637
vn 0.000000 1.000000 0.000000
vn 0.866009 0.000000 0.500029
vn 0.000000 1.000000 0.000000
vn 0.642775 0.000000 0.766055
vn 0.000000 1.000000 0.000000
vn 0.341978 0.000000 0.939708
vn 0.000000 1.000000 0.000000
vn 0.000000 0.000000 1.000000
vn 0.000000 1.000000 0.000000
vn -0.341978 0.000000 0.939708
vn 0.000000 1.000000 0.000000
vn -0.642775 0.000000 0.766055
vn 0.000000 1.000000 0.000000
vn -0.866009 0.000000 0.500029
vn 0.000000 1.000000 0.000000
vn -0.984810 0.000000 -0.173637
vn -0.984810 0.000000 -0.173637
vn -0.984810 0.000000 -0.173637
vn -0.984810 0.000000 -0.173637
vn -0.866009 0.000000 -0.500029
vn -0.866009 0.000000 -0.500029
vn -0.642775 0.000000 -0.766055
vn -0.642775 0.000000 -0.766055
vn -0.341978 0.000000 -0.939708
vn -0.341978 0.000000 -0.939708
vn 0.000000 0.000000 -1.000000
vn 0.000000 0.000000 -1.000000
vn 0.341978 0.000000 -0.939708
vn 0.341978 0.000000 -0.939708
vn 0.642775 0.000000 -0.766055
vn 0.642775 0.000000 -0.766055
vn 0.866009 0.000000 -0.500029
vn 0.866009 0.000000 -0.500029
vn 0.984810 0.000000 -0.173637
vn 0.984810 0.000000 -0.173637
vn 0.984810 0.000000 0.173637
vn 0.984810 0.000000 0.173637
vn 0.866009 0.000000 0.500029
vn 0.866009 0.000000 0.500029
vn 0.642775 0.000000 0.766055
vn 0.642775 0.000000 0.766055
vn 0.341978 0.000000 0.939708
vn 0.341978 0.000000 0.939708
vn 0.000000 0.000000 1.000000
vn 0.000000 0.000000 1.000000
vn -0.341978 0.000000 0.939708
vn -0.341978 0.000000 0.939708
vn -0.642775 0.000000 0.766055
vn -0.642775 0.000000 0.766055
vn -0.866009 0.000000 0.500029
vn -0.866009 0.000000 0.500029
vn -0.984810 0.000000 -0.173637
vn -0.984810 0.000000 -0.173637
vn -0.984810 0.000000 -0.173637
vn -0.984810 0.000000 -0.173637
vn -0.866009 0.000000 -0.500029
vn -0.866009 0.000000 -0.500029
vn -0.642775 0.000000 -0.766055
vn -0.642775 0.000000 -0.766055
vn -0.341978 0.000000 -0.939708
vn -0.341978 0.000000 -0.939708
vn 0.000000 0.000000 -1.000000
vn 0.000000 0.000000 -1.000000
vn 0.341978 0.000000 -0.939708
vn 0.341978 0.000000 -0.939708
vn 0.642775 0.000000 -0.766055
vn 0.642775 0.000000 -0.766055
vn 0.866009 0.000000 -0.500029
vn 0.866009 0.000000 -0.500029
vn 0.984810 0.000000 -0.173637
vn 0.984810 0.000000 -0.173637
vn 0.984810 0.000000 0.173637
vn 0.984810 0.000000 0.173637
vn 0.866009 0.000000 0.500029
vn 0.866009 0.000000 0.500029
vn 0.642775 0.000000 0.766055
vn 0.642775 0.000000 0.766055
vn 0.341978 0.000000 0.939708
vn 0.341978 0.000000 0.939708
vn 0.000000 0.000000 1.000000
vn 0.000000 0.000000 1.000000
vn -0.341978 0.000000 0.939708
vn -0.341978 0.000000 0.939708
vn -0.642775 0.000000 0.766055
vn -0.642775 0.000000 0.766055
vn -0.866009 0.000000 0.500029
vn -0.866009 0.000000 0.500029
vn 0.984810 0.000000 -0.173637
vn 0.984810 0.000000 -0.173637
vn 0.984810 0.000000 -0.173637
vn 0.984810 0.000000 -0.173637
vn 0.984810 0.000000 0.173637
vn 0.984810 0.000000 0.173637
vn 0.866009 0.000000 0.500029
vn 0.866009 0.000000 0.500029
vn 0.642775 0.000000 0.766055
vn 0.642775 0.000000 0.766055
vn 0.341978 0.000000 0.939708
vn 0.341978 0.000000 0.939708
vn 0.000000 0.000000 1.000000
vn 0.000000 0.000000 1.000000
vn -0.341978 0.000000 0.939708
vn -0.341978 0.000000 0.939708
vn -0.642775 0.000000 0.766055
vn -0.642775 0.000000 0.766055
vn -0.866009 0.000000 0.500029
vn -0.866009 0.000000 0.500029
vn -0.984810 0.000000 0.173637
vn -0.984810 0.000000 0.173637
vn -0.984810 0.000000 -0.173637
vn -0.984810 0.000000 -0.173637
vn -0.866009 0.000000 -0.500029
vn -0.866009 0.000000 -0.500029
vn -0.642775 0.000000 -0.766055
vn -0.642775 0.000000 -0.766055
vn -0.341978 0.000000 -0.939708
vn -0.341978 0.000000 -0.939708
vn 0.000000 0.000000 -1.000000
vn 0.000000 0.000000 -1.000000
vn 0.341978 0.000000 -0.939708
vn 0.341978 0.000000 -0.939708
vn 0.642775 0.000000 -0.766055
vn 0.642775 0.000000 -0.766055
vn 0.000000 0.000000 1.000000
vn 0.000000 1.000000 0.000000
vn 0.000000 1.000000 0.000000
vn -0.341978 0.000000 0.939708
vn 0.000000 1.000000 0.000000
vn 0.000000 1.000000 0.000000
vn 0.000000 1.000000 0.000000
vn 0.000000 1.000000 0.000000
vn 0.000000 1.000000 0.000000
vn 0.000000 1.000000 0.000000
vn 0.000000 1.000000 0.000000
vn 0.000000 1.000000 0.000000
vn 0.000000 1.000000 0.000000
vn 0.000000 1.000000 0.000000
vn 0.000000 1.000000 0.000000
vn 0.000000 1.000000 0.000000
vn 0.000000 0.000000 -1.000000
vn 0.000000 1.000000 0.000000
vn 0.000000 1.000000 0.000000
vn 0.341978 0.000000 -0.939708
vn -0.642775 0.000000 -0.766055
vn 0.000000 1.000000 0.000000
vn 0.000000 0.000000 -1.000000
vn -0.341978 0.000000 -0.939708
vn -0.866022 0.000000 -0.500006
vn 0.000000 1.000000 0.000000
vn 0.000000 1.000000 0.000000
vn -0.642775 0.000000 -0.766055
vn -0.984810 0.000000 0.173637
vn 0.000000 1.000000 0.000000
vn 0.000000 1.000000 0.000000
vn -0.866022 0.000000 -0.500006
vn -0.984810 0.000000 0.173637
vn -0.984810 0.000000 0.173637
vn 0.000000 1.000000 0.000000
vn 0.000000 1.000000 0.000000
vn 0.000000 1.000000 0.000000
vn 0.000000 1.000000 0.000000
vn -0.984810 0.000000 0.173637
vn -0.866022 0.000000 0.500006
vn -0.341978 0.000000 0.939708
vn 0.000000 1.000000 0.000000
vn -0.866022 0.000000 0.500006
vn -0.642775 0.000000 0.766055
vn 0.642775 0.000000 0.766055
vn 0.000000 1.000000 0.000000
vn 0.000000 0.000000 1.000000
vn 0.341978 0.000000 0.939708
vn 0.866009 0.000000 0.500029
vn 0.000000 1.000000 0.000000
vn 0.000000 1.000000 0.000000
vn 0.642775 0.000000 0.766055
vn 0.000000 1.000000 0.000000
vn 0.000000 1.000000 0.000000
vn 0.866009 0.000000 0.500029
vn 0.984810 0.000000 0.173637
vn 0.000000 1.000000 0.000000
vn 0.000000 1.000000 0.000000
vn 0.984810 0.000000 0.173637
vn 0.984810 0.000000 -0.173637
vn 0.000000 1.000000 0.000000
vn 0.000000 1.000000 0.000000
vn 0.984810 0.000000 -0.173637
vn 0.866009 0.000000 -0.500029
vn 0.341978 0.000000 -0.939708
vn 0.000000 1.000000 0.000000
vn 0.866009 0.000000 -0.500029
vn 0.642775 0.000000 -0.766055
vn 0.642775 0.000000 -0.766055
vn 0.000000 -1.000000 0.000000
vn 0.000000 0.000000 -1.000000
vn 0.341978 0.000000 -0.939708
vn 0.000000 -1.000000 0.000000
vn 0.000000 -1.000000 0.000000
vn 0.000000 -1.000000 0.000000
vn 0.000000 0.000000 -1.000000
vn 0.984810 0.000000 -0.173637
vn 0.000000 -1.000000 0.000000
vn 0.000000 -1.000000 0.000000
vn 0.866022 0.000000 -0.500006
vn 0.000000 -1.000000 0.000000
vn 0.000000 -1.000000 0.000000
vn 0.000000 -1.000000 0.000000
vn 0.000000 -1.000000 0.000000
vn -0.984810 0.000000 -0.173637
vn -0.984810 0.000000 -0.173637
vn 0.000000 -1.000000 0.000000
vn 0.000000 -1.000000 0.000000
vn 0.000000 -1.000000 0.000000
vn -0.984810 0.000000 -0.173637
vn 0.000000 -1.000000 0.000000
vn 0.000000 -1.000000 0.000000
vn 0.000000 -1.000000 0.000000
vn 0.000000 -1.000000 0.000000
vn 0.000000 -1.000000 0.000000
vn 0.000000 -1.000000 0.000000
vn 0.866022 0.000000 -0.500006
vn 0.000000 -1.000000 0.000000
vn 0.000000 -1.000000 0.000000
vn 0.642775 0.000000 -0.766055
vn 0.866009 0.000000 0.500029
vn 0.000000 -1.000000 0.000000
vn 0.000000 -1.000000 0.000000
vn 0.984810 0.000000 0.173637
vn 0.000000 -1.000000 0.000000
vn 0.000000 -1.000000 0.000000
vn 0.000000 -1.000000 0.000000
vn 0.000000 -1.000000 0.000000
vn -0.866022 0.000000 0.500006
vn 0.000000 -1.000000 0.000000
vn 0.000000 -1.000000 0.000000
vn -0.642775 0.000000 0.766055
vn -0.984810 0.000000 -0.173637
vn 0.000000 -1.000000 0.000000
vn 0.000000 -1.000000 0.000000
vn -0.866022 0.000000 0.500006
vn 0.000000 -1.000000 0.000000
vn 0.000000 -1.000000 0.000000
vn 0.000000 -1.000000 0.000000
vn 0.000000 -1.000000 0.000000
vn 0.984810 0.000000 0.173637
vn 0.000000 -1.000000 0.000000
vn 0.000000 -1.000000 0.000000
vn 0.984810 0.000000 -0.173637
vn 0.341978 0.000000 0.939708
vn 0.000000 -1.000000 0.000000
vn 0.866009 0.000000 0.500029
vn 0.642775 0.000000 0.766055
vn 0.000000 0.000000 1.000000
vn 0.000000 -1.000000 0.000000
vn 0.000000 -1.000000 0.000000
vn 0.341978 0.000000 0.939708
vn -0.642775 0.000000 0.766055
vn 0.000000 -1.000000 0.000000
vn 0.000000 0.000000 1.000000
vn -0.341978 0.000000 0.939708
s 1
g barrel1 Barrel:barrelpCylinder4
usemtl initialShadingGroup
f 55/83/161 56/84/162 234/85/163 217/86/164
f 56/84/162 57/87/165 233/88/166 234/85/163
f 57/87/165 58/89/167 232/90/168 233/88/166
f 58/89/167 59/91/169 231/92/170 232/90/168
f 59/91/169 60/93/171 230/94/172 231/92/170
f 60/93/171 61/95/173 229/96/174 230/94/172
f 61/95/173 62/97/175 228/98/176 229/96/174
f 62/97/175 63/99/177 227/100/178 228/98/176
f 63/99/177 64/101/179 226/102/180 227/100/178
f 64/101/179 65/103/181 225/104/182 226/102/180
f 65/103/181 66/105/183 224/106/184 225/104/182
f 66/105/183 67/107/185 223/108/186 224/106/184
f 67/107/185 68/109/187 222/110/188 223/108/186
f 68/109/187 69/111/189 221/112/190 222/110/188
f 69/111/189 70/113/191 220/114/192 221/112/190
f 70/113/191 71/115/193 219/116/194 220/114/192
f 71/115/193 72/117/195 218/118/196 219/116/194
f 72/119/195 55/83/161 217/86/164 218/120/196
s off
f 318/121/197 147/122/198 148/123/199 149/124/200
f 307/125/201 308/126/202 315/127/203 316/128/204
s 2
f 90/129/205 73/130/206 92/131/207 91/132/208
f 73/130/206 74/133/209 93/134/210 92/131/207
f 74/133/209 75/135/211 94/136/212 93/134/210
f 75/135/211 76/137/213 95/138/214 94/136/212
f 76/137/213 77/139/215 96/140/216 95/138/214
f 77/139/215 78/141/217 97/142/218 96/140/216
f 78/141/217 79/143/219 98/144/220 97/142/218
f 79/143/219 80/145/221 99/146/222 98/144/220
f 80/145/221 81/147/223 100/148/224 99/146/222
f 81/147/223 82/149/225 101/150/226 100/148/224
f 82/149/225 83/151/227 102/152/228 101/150/226
f 83/151/227 84/153/229 103/154/230 102/152/228
f 84/153/229 85/155/231 104/156/232 103/154/230
f 85/155/231 86/157/233 105/158/234 104/156/232
f 86/157/233 87/159/235 106/160/236 105/158/234
f 87/159/235 88/161/237 107/162/238 106/160/236
f 88/161/237 89/163/239 108/164/240 107/162/238
f 89/163/239 90/129/205 91/132/208 108/164/240
s 3
f 91/132/241 92/131/242 110/165/243 109/166/244
f 92/131/242 93/134/245 111/167/246 110/165/243
f 93/134/245 94/136/247 112/168/248 111/167/246
f 94/136/247 95/138/249 113/169/250 112/168/248
f 95/138/249 96/140/251 114/170/252 113/169/250
f 96/140/251 97/142/253 115/171/254 114/170/252
f 97/142/253 98/144/255 116/172/256 115/171/254
f 98/144/255 99/146/257 117/173/258 116/172/256
f 99/146/257 100/148/259 118/174/260 117/173/258
f 100/148/259 101/150/261 119/175/262 118/174/260
f 101/150/261 102/152/263 120/176/264 119/175/262
f 102/152/263 103/154/265 121/177/266 120/176/264
f 103/154/265 104/156/267 122/178/268 121/177/266
f 104/156/267 105/158/269 123/179/270 122/178/268
f 105/158/269 106/160/271 124/180/272 123/179/270
f 106/160/271 107/162/273 125/181/274 124/180/272
f 107/162/273 108/164/275 126/182/276 125/181/274
f 108/164/275 91/132/241 109/166/244 126/182/276
s 4
f 72/183/277 71/184/278 127/185/279 128/186/280
f 71/184/278 70/187/281 129/188/282 127/185/279
f 70/187/281 69/189/283 130/190/284 129/188/282
f 69/189/283 68/191/285 131/192/286 130/190/284
f 68/191/285 67/193/287 132/194/288 131/192/286
f 67/193/287 66/195/289 133/196/290 132/194/288
f 66/195/289 65/197/291 134/198/292 133/196/290
f 65/197/291 64/199/293 135/200/294 134/198/292
f 64/199/293 63/201/295 136/202/296 135/200/294
f 63/201/295 62/203/297 137/204/298 136/202/296
f 62/203/297 61/205/299 138/206/300 137/204/298
f 61/205/299 60/207/301 139/208/302 138/206/300
f 60/207/301 59/209/303 140/210/304 139/208/302
f 59/209/303 58/211/305 141/212/306 140/210/304
f 58/211/305 57/213/307 142/214/308 141/212/306
f 57/213/307 56/215/309 143/216/310 142/214/308
f 56/215/309 55/217/311 144/218/312 143/216/310
f 55/217/311 72/183/277 128/186/280 144/218/312
s 5
f 128/186/313 127/185/314 145/219/315 146/220/316
f 127/185/314 129/188/317 147/122/318 145/219/315
f 129/188/317 130/190/319 148/123/320 147/122/318
f 130/190/319 131/192/321 149/124/322 148/123/320
f 131/192/321 132/194/323 150/221/324 149/124/322
f 132/194/323 133/196/325 151/222/326 150/221/324
f 133/196/325 134/198/327 152/223/328 151/222/326
f 134/198/327 135/200/329 153/224/330 152/223/328
f 135/200/329 136/202/331 154/225/332 153/224/330
f 136/202/331 137/204/333 155/226/334 154/225/332
f 137/204/333 138/206/335 156/227/336 155/226/334
f 138/206/335 139/208/337 157/228/338 156/227/336
f 139/208/337 140/210/339 158/229/340 157/228/338
f 140/210/339 141/212/341 159/230/342 158/229/340
f 141/212/341 142/214/343 160/231/344 159/230/342
f 142/214/343 143/216/345 161/232/346 160/231/344
f 143/216/345 144/218/347 162/233/348 161/232/346
f 144/218/347 128/186/313 146/220/316 162/233/348
s 1
f 164/234/349 163/235/350 81/236/351 80/237/352
f 165/238/353 164/234/349 80/237/352 79/239/354
f 166/240/355 165/238/353 79/239/354 78/241/356
f 167/242/357 166/240/355 78/241/356 77/243/358
f 168/244/359 167/242/357 77/243/358 76/245/360
f 169/246/361 168/244/359 76/245/360 75/247/362
f 170/248/363 169/246/361 75/247/362 74/249/364
f 171/250/365 170/248/363 74/249/364 73/251/366
f 172/252/367 171/250/365 73/251/366 90/253/368
f 173/254/369 172/255/367 90/256/368 89/257/370
f 174/258/371 173/254/369 89/257/370 88/259/372
f 175/260/373 174/258/371 88/259/372 87/261/374
f 176/262/375 175/260/373 87/261/374 86/263/376
f 177/264/377 176/262/375 86/263/376 85/265/378
f 178/266/379 177/264/377 85/265/378 84/267/380
f 179/268/381 178/266/379 84/267/380 83/269/382
f 180/270/383 179/268/381 83/269/382 82/271/384
f 163/235/350 180/270/383 82/271/384 81/236/351
f 200/272/385 199/273/386 181/274/387 182/275/388
f 201/276/389 200/272/385 182/275/388 183/277/390
f 202/278/391 201/276/389 183/277/390 184/279/392
f 203/280/393 202/278/391 184/279/392 185/281/394
f 204/282/395 203/280/393 185/281/394 186/283/396
f 205/284/397 204/282/395 186/283/396 187/285/398
f 206/286/399 205/284/397 187/285/398 188/287/400
f 207/288/401 206/286/399 188/287/400 189/289/402
f 208/290/403 207/288/401 189/289/402 190/291/404
f 209/292/405 208/293/403 190/294/404 191/295/406
f 210/296/407 209/292/405 191/295/406 192/297/408
f 211/298/409 210/296/407 192/297/408 193/299/410
f 212/300/411 211/298/409 193/299/410 194/301/412
f 213/302/413 212/300/411 194/301/412 195/303/414
f 214/304/415 213/302/413 195/303/414 196/305/416
f 215/306/417 214/304/415 196/305/416 197/307/418
f 216/308/419 215/306/417 197/307/418 198/309/420
f 199/273/386 216/308/419 198/309/420 181/274/387
f 236/310/421 235/311/422 237/312/423 238/313/424
f 239/314/425 236/310/421 238/313/424 240/315/426
f 241/316/427 239/314/425 240/315/426 242/317/428
f 243/318/429 241/316/427 242/317/428 244/319/430
f 245/320/431 243/318/429 244/319/430 246/321/432
f 247/322/433 245/320/431 246/321/432 248/323/434
f 249/324/435 247/322/433 248/323/434 250/325/436
f 251/326/437 249/324/435 250/325/436 252/327/438
f 253/328/439 251/326/437 252/327/438 254/329/440
f 255/330/441 253/331/439 254/332/440 256/333/442
f 257/334/443 255/330/441 256/333/442 258/335/444
f 259/336/445 257/334/443 258/335/444 260/337/446
f 261/338/447 259/336/445 260/337/446 262/339/448
f 263/340/449 261/338/447 262/339/448 264/341/450
f 265/342/451 263/340/449 264/341/450 266/343/452
f 267/344/453 265/342/451 266/343/452 268/345/454
f 269/346/455 267/344/453 268/345/454 270/347/456
f 235/311/422 269/346/455 270/347/456 237/312/423
f 272/348/457 271/349/458 273/350/459 274/351/460
f 275/352/461 272/353/457 274/354/460 276/355/462
f 277/356/463 275/352/461 276/355/462 278/357/464
f 279/358/465 277/356/463 278/357/464 280/359/466
f 281/360/467 279/358/465 280/359/466 282/361/468
f 283/362/469 281/360/467 282/361/468 284/363/470
f 285/364/471 283/362/469 284/363/470 286/365/472
f 287/366/473 285/364/471 286/365/472 288/367/474
f 289/368/475 287/366/473 288/367/474 290/369/476
f 291/370/477 289/368/475 290/369/476 292/371/478
f 293/372/479 291/370/477 292/371/478 294/373/480
f 295/374/481 293/372/479 294/373/480 296/375/482
f 297/376/483 295/374/481 296/375/482 298/377/484
f 299/378/485 297/376/483 298/377/484 300/379/486
f 301/380/487 299/378/485 300/379/486 302/381/488
f 303/382/489 301/380/487 302/381/488 304/383/490
f 305/384/491 303/382/489 304/383/490 306/385/492
f 271/349/458 305/384/491 306/385/492 273/350/459
f 182/275/388 181/274/387 235/311/422 236/310/421
f 163/235/350 164/234/349 238/313/424 237/312/423
f 183/277/390 182/275/388 236/310/421 239/314/425
f 164/234/349 165/238/353 240/315/426 238/313/424
f 184/279/392 183/277/390 239/314/425 241/316/427
f 165/238/353 166/240/355 242/317/428 240/315/426
f 185/281/394 184/279/392 241/316/427 243/318/429
f 166/240/355 167/242/357 244/319/430 242/317/428
f 186/283/396 185/281/394 243/318/429 245/320/431
f 167/242/357 168/244/359 246/321/432 244/319/430
f 187/285/398 186/283/396 245/320/431 247/322/433
f 168/244/359 169/246/361 248/323/434 246/321/432
f 188/287/400 187/285/398 247/322/433 249/324/435
f 169/246/361 170/248/363 250/325/436 248/323/434
f 189/289/402 188/287/400 249/324/435 251/326/437
f 170/248/363 171/250/365 252/327/438 250/325/436
f 190/291/404 189/289/402 251/326/437 253/328/439
f 171/250/365 172/252/367 254/329/440 252/327/438
f 191/295/406 190/294/404 253/331/439 255/330/441
f 172/255/367 173/254/369 256/333/442 254/332/440
f 192/297/408 191/295/406 255/330/441 257/334/443
f 173/254/369 174/258/371 258/335/444 256/333/442
f 193/299/410 192/297/408 257/334/443 259/336/445
f 174/258/371 175/260/373 260/337/446 258/335/444
f 194/301/412 193/299/410 259/336/445 261/338/447
f 175/260/373 176/262/375 262/339/448 260/337/446
f 195/303/414 194/301/412 261/338/447 263/340/449
f 176/262/375 177/264/377 264/341/450 262/339/448
f 196/305/416 195/303/414 263/340/449 265/342/451
f 177/264/377 178/266/379 266/343/452 264/341/450
f 197/307/418 196/305/416 265/342/451 267/344/453
f 178/266/379 179/268/381 268/345/454 266/343/452
f 198/309/420 197/307/418 267/344/453 269/346/455
f 179/268/381 180/270/383 270/347/456 268/345/454
f 181/274/387 198/309/420 269/346/455 235/311/422
f 180/270/383 163/235/350 237/312/423 270/347/456
f 218/120/196 217/86/164 271/349/458 272/348/457
f 207/288/401 208/290/403 274/351/460 273/350/459
f 219/116/194 218/118/196 272/353/457 275/352/461
f 208/293/403 209/292/405 276/355/462 274/354/460
f 220/114/192 219/116/194 275/352/461 277/356/463
f 209/292/405 210/296/407 278/357/464 276/355/462
f 221/112/190 220/114/192 277/356/463 279/358/465
f 210/296/407 211/298/409 280/359/466 278/357/464
f 222/110/188 221/112/190 279/358/465 281/360/467
f 211/298/409 212/300/411 282/361/468 280/359/466
f 223/108/186 222/110/188 281/360/467 283/362/469
f 212/300/411 213/302/413 284/363/470 282/361/468
f 224/106/184 223/108/186 283/362/469 285/364/471
f 213/302/413 214/304/415 286/365/472 284/363/470
f 225/104/182 224/106/184 285/364/471 287/366/473
f 214/304/415 215/306/417 288/367/474 286/365/472
f 226/102/180 225/104/182 287/366/473 289/368/475
f 215/306/417 216/308/419 290/369/476 288/367/474
f 227/100/178 226/102/180 289/368/475 291/370/477
f 216/308/419 199/273/386 292/371/478 290/369/476
f 228/98/176 227/100/178 291/370/477 293/372/479
f 199/273/386 200/272/385 294/373/480 292/371/478
f 229/96/174 228/98/176 293/372/479 295/374/481
f 200/272/385 201/276/389 296/375/482 294/373/480
f 230/94/172 229/96/174 295/374/481 297/376/483
f 201/276/389 202/278/391 298/377/484 296/375/482
f 231/92/170 230/94/172 297/376/483 299/378/485
f 202/278/391 203/280/393 300/379/486 298/377/484
f 232/90/168 231/92/170 299/378/485 301/380/487
f 203/280/393 204/282/395 302/381/488 300/379/486
f 233/88/166 232/90/168 301/380/487 303/382/489
f 204/282/395 205/284/397 304/383/490 302/381/488
f 234/85/163 233/88/166 303/382/489 305/384/491
f 205/284/397 206/286/399 306/385/492 304/383/490
f 217/86/164 234/85/163 305/384/491 271/349/458
f 206/286/399 207/288/401 273/350/459 306/385/492
s off
f 114/170/493 312/386/494 311/387/495 113/169/496
f 309/388/497 310/389/498 313/390/499 314/391/500
f 312/386/501 313/390/502 310/389/503 311/387/504
f 308/126/505 309/388/506 314/391/507 315/127/508
f 123/179/509 307/125/510 316/128/511 122/178/512
f 125/181/513 307/125/514 123/179/515 124/180/516
f 126/182/517 308/126/518 307/125/519 125/181/520
f 109/166/521 309/388/522 308/126/523 126/182/524
f 109/166/525 110/165/526 310/389/527 309/388/528
f 311/387/529 310/389/530 110/165/531 111/167/532
f 113/169/533 311/387/534 111/167/535 112/168/536
f 116/172/537 312/386/538 114/170/539 115/171/540
f 117/173/541 313/390/542 312/386/543 116/172/544
f 314/391/545 313/390/546 117/173/547 118/174/548
f 315/127/549 314/391/550 118/174/551 119/175/552
f 316/128/553 315/127/554 119/175/555 120/176/556
f 122/178/557 316/128/558 120/176/559 121/177/560
f 152/223/561 317/392/562 150/221/563 151/222/564
f 317/392/565 318/121/566 149/124/567 150/221/568
f 154/225/569 321/393/570 320/394/571 153/224/572
f 321/393/573 322/395/574 319/396/575 320/394/576
f 146/220/577 145/219/578 319/396/579 322/395/580
f 319/396/581 145/219/582 147/122/583 318/121/584
f 320/394/585 319/396/586 318/121/587 317/392/588
f 153/224/589 320/394/590 317/392/591 152/223/592
f 156/227/593 325/397/594 324/398/595 155/226/596
f 325/397/597 326/399/598 323/400/599 324/398/600
f 162/233/601 323/400/602 326/399/603 161/232/604
f 146/220/605 322/395/606 323/400/607 162/233/608
f 324/398/609 323/400/610 322/395/611 321/393/612
f 155/226/613 324/398/614 321/393/615 154/225/616
f 158/229/617 325/397/618 156/227/619 157/228/620
f 159/230/621 326/399/622 325/397/623 158/229/624
f 161/232/625 326/399/626 159/230/627 160/231/628
