# author: headus 3D tools
#  using: ply2obj v1.8
#   from: uvlayout v2.09.04
mtllib FishingBarrel.mtl
# 162 vertices
v 0.18000000 -0.33100000 -0.08700000
v 0.12453500 -0.33100000 -0.15655100
v 0.04438701 -0.33100000 -0.19514899
v -0.04457302 -0.33100000 -0.19514899
v -0.12472202 -0.33100000 -0.15655100
v -0.18018700 -0.33100000 -0.08700099
v -0.19998204 -0.33100000 -0.00027200
v -0.18018700 -0.33100000 0.08645600
v -0.12472202 -0.33100000 0.15600702
v -0.04457302 -0.33100000 0.19460502
v 0.04438599 -0.33100000 0.19460502
v 0.12453500 -0.33100000 0.15600702
v 0.18000000 -0.33100000 0.08645704
v 0.19979500 -0.33100000 -0.00027200
v 0.18175899 0.33084192 -0.08784700
v 0.12575200 0.33084192 -0.15807699
v 0.04481998 0.33084192 -0.19705099
v -0.04500698 0.33084192 -0.19705099
v -0.12593802 0.33084192 -0.15807699
v -0.18194496 0.33084192 -0.08784700
v -0.20193304 0.33084192 -0.00027200
v -0.18194496 0.33084192 0.08730300
v -0.12593802 0.33084192 0.15753300
v -0.04500698 0.33084192 0.19650698
v 0.04481998 0.33084192 0.19650698
v 0.12575200 0.33084192 0.15753300
v 0.18175899 0.33084192 0.08730300
v 0.20174699 0.33084192 -0.00027200
v 0.25089699 0.21600008 -0.00027200
v 0.22604099 0.21600008 0.10862900
v 0.15639701 0.21600008 0.19596002
v 0.05575698 0.21600008 0.24442502
v -0.05594404 0.21600008 0.24442502
v -0.15658304 0.21600008 0.19596002
v -0.22622804 0.21600008 0.10862900
v -0.25108308 0.21600008 -0.00027200
v -0.22622804 0.21600008 -0.10917300
v -0.15658304 0.21600008 -0.19650401
v -0.05594404 0.21600008 -0.24496898
v 0.05575698 0.21600008 -0.24496898
v 0.15639701 0.21600008 -0.19650401
v 0.22604099 0.21600008 -0.10917300
v 0.25089699 -0.00007904 -0.00027200
v 0.22604099 -0.00007904 0.10862900
v 0.15639701 -0.00007904 0.19596002
v 0.05575698 -0.00007904 0.24442502
v -0.05594404 -0.00007904 0.24442502
v -0.15658304 -0.00007904 0.19596002
v -0.22622804 -0.00007904 0.10862900
v -0.25108308 -0.00007904 -0.00027200
v -0.22622804 -0.00007904 -0.10917300
v -0.15658304 -0.00007904 -0.19650401
v -0.05594404 -0.00007904 -0.24496898
v 0.05575698 -0.00007904 -0.24496898
v 0.15639701 -0.00007904 -0.19650401
v 0.22604099 -0.00007904 -0.10917300
v 0.25089699 -0.21615800 -0.00027200
v 0.22604099 -0.21615800 0.10862900
v 0.15639701 -0.21615800 0.19596002
v 0.05575698 -0.21615800 0.24442502
v -0.05594404 -0.21615800 0.24442502
v -0.15658304 -0.21615800 0.19596002
v -0.22622804 -0.21615800 0.10862900
v -0.25108308 -0.21615800 -0.00027200
v -0.22622804 -0.21615800 -0.10917300
v -0.15658304 -0.21615800 -0.19650401
v -0.05594404 -0.21615800 -0.24496898
v 0.05575698 -0.21615800 -0.24496898
v 0.15639701 -0.21615800 -0.19650401
v 0.22604099 -0.21615800 -0.10917300
v -0.16039104 0.33084192 0.07692300
v -0.11102302 0.33084192 0.13882902
v -0.03968402 0.33084192 0.17318400
v 0.03949699 0.33084192 0.17318400
v 0.11083600 0.33084192 0.13882902
v 0.16020500 0.33084192 0.07692300
v 0.17782402 0.33084192 -0.00027200
v 0.16020500 0.33084192 -0.07746702
v 0.11083600 0.33084192 -0.13937300
v 0.03949699 0.33084192 -0.17372800
v -0.03968300 0.33084192 -0.17372800
v -0.11102302 0.33084192 -0.13937300
v -0.16039104 0.33084192 -0.07746702
v -0.17801100 0.33084192 -0.00027200
v -0.16039104 0.29699804 0.07692300
v -0.11102302 0.29699804 0.13882902
v -0.03968402 0.29699804 0.17318400
v 0.03949699 0.29699804 0.17318400
v 0.11083600 0.29699804 0.13882902
v 0.16020500 0.29699804 0.07692300
v 0.17782402 0.29699804 -0.00027200
v 0.16020500 0.29699804 -0.07746702
v 0.11083600 0.29699804 -0.13937300
v 0.03949699 0.29699804 -0.17372800
v -0.03968300 0.29699804 -0.17372800
v -0.11102302 0.29699804 -0.13937300
v -0.16039104 0.29699804 -0.07746702
v -0.17801100 0.29699804 -0.00027200
v -0.09078500 0.32284608 0.04340300
v -0.06285400 0.32284608 0.07842700
v -0.02249198 0.32284608 0.09786400
v 0.02230498 0.32284608 0.09786400
v 0.06266700 0.32284608 0.07842700
v 0.09059798 0.32284608 0.04340300
v 0.10056600 0.32284608 -0.00027200
v 0.09059798 0.32284608 -0.04394701
v 0.06266700 0.32284608 -0.07897101
v 0.02230498 0.32284608 -0.09840800
v -0.02249198 0.32284608 -0.09840800
v -0.06285400 0.32284608 -0.07897101
v -0.09078500 0.32284608 -0.04394701
v -0.10075308 0.32284608 -0.00027200
v 0.06266700 0.32284608 -0.00027200
v 0.02230498 0.32284608 -0.00027200
v -0.02249198 0.32284608 -0.00027200
v -0.06285400 0.32284608 -0.00027200
v 0.12453500 -0.33100000 -0.00027200
v 0.04438599 -0.33100000 -0.00027200
v -0.04457302 -0.33100000 -0.00027200
v -0.12472202 -0.33100000 -0.00027200
v 0.20666199 0.31935796 -0.00027200
v 0.18618699 0.31935796 0.08943602
v 0.12881600 0.31935796 0.16137602
v 0.04591400 0.31935796 0.20129896
v -0.04610102 0.31935796 0.20129896
v -0.12900302 0.31935796 0.16137602
v -0.18637300 0.31935796 0.08943602
v -0.20684804 0.31935796 -0.00027200
v -0.18637300 0.31935796 -0.08998000
v -0.12900302 0.31935796 -0.16192001
v -0.04610000 0.31935796 -0.20184300
v 0.04591400 0.31935796 -0.20184300
v 0.12881600 0.31935796 -0.16192001
v 0.18618699 0.31935796 -0.08998000
v 0.21869200 0.31935796 -0.00027200
v 0.19702499 0.31935796 0.09465500
v 0.21349100 0.33084192 -0.00027200
v 0.19233999 0.33084192 0.09239898
v 0.13631600 0.31935796 0.17078100
v 0.13307400 0.33084192 0.16671502
v 0.04859100 0.31935796 0.21302802
v 0.04743399 0.33084192 0.20795706
v -0.04877802 0.31935796 0.21302802
v -0.04762002 0.33084192 0.20795706
v -0.13650400 0.31935796 0.17078100
v -0.13326102 0.33084192 0.16671502
v -0.19721200 0.31935796 0.09465500
v -0.19252600 0.33084192 0.09239898
v -0.21887804 0.31935796 -0.00027200
v -0.21367700 0.33084192 -0.00027200
v -0.19721200 0.31935796 -0.09519899
v -0.19252600 0.33084192 -0.09294300
v -0.13650400 0.31935796 -0.17132500
v -0.13326102 0.33084192 -0.16725900
v -0.04877700 0.31935796 -0.21357202
v -0.04762002 0.33084192 -0.20850101
v 0.04859100 0.31935796 -0.21357202
v 0.04743399 0.33084192 -0.20850101
v 0.13631600 0.31935796 -0.17132500
v 0.13307400 0.33084192 -0.16725900
v 0.19702499 0.31935796 -0.09519899
v 0.19233999 0.33084192 -0.09294300
# 176 normals
vn 0.642587 -0.700848 -0.309467
vn 0.375298 -0.798419 -0.470701
vn 0.617744 -0.134713 -0.774675
vn 0.892694 -0.134713 -0.429866
vn 0.119178 -0.844198 -0.522401
vn 0.220472 -0.134713 -0.966032
vn -0.119178 -0.844198 -0.522401
vn -0.220472 -0.134713 -0.966032
vn -0.375298 -0.798419 -0.470701
vn -0.617744 -0.134682 -0.774705
vn -0.642587 -0.700848 -0.309467
vn -0.892694 -0.134682 -0.429866
vn -0.713239 -0.700848 0.000000
vn -0.990814 -0.134682 0.000000
vn -0.642587 -0.700848 0.309467
vn -0.892694 -0.134682 0.429866
vn -0.375298 -0.798419 0.470701
vn -0.617744 -0.134682 0.774675
vn -0.119178 -0.844198 0.522401
vn -0.220472 -0.134713 0.966032
vn 0.119178 -0.844198 0.522401
vn 0.220472 -0.134713 0.966032
vn 0.375298 -0.798419 0.470701
vn 0.617744 -0.134713 0.774675
vn 0.642587 -0.700848 0.309467
vn 0.892694 -0.134713 0.429866
vn 0.713239 -0.700848 0.000000
vn 0.990814 -0.134713 0.000000
vn 0.000000 -1.000000 0.000000
vn 0.000000 -1.000000 0.000000
vn 0.000000 1.000000 0.000000
vn 0.000000 1.000000 0.000000
vn -0.044131 0.980101 0.193341
vn 0.044131 0.980101 0.193341
vn 0.894220 0.121986 0.430629
vn 0.992462 0.121986 0.000000
vn 0.954312 0.298785 0.000000
vn 0.859733 0.298785 0.414057
vn 0.618812 0.121986 0.775926
vn 0.595007 0.298785 0.746109
vn 0.220778 0.121986 0.967558
vn 0.212354 0.298755 0.930324
vn -0.220778 0.121986 0.967558
vn -0.212354 0.298755 0.930324
vn -0.618812 0.121986 0.775926
vn -0.595007 0.298755 0.746109
vn -0.894220 0.121986 0.430629
vn -0.859733 0.298755 0.414057
vn -0.992462 0.121986 0.000000
vn -0.954312 0.298755 0.000000
vn -0.894220 0.121986 -0.430629
vn -0.859733 0.298755 -0.414057
vn -0.618812 0.121986 -0.775926
vn -0.595007 0.298755 -0.746109
vn -0.220778 0.121986 -0.967558
vn -0.212354 0.298755 -0.930324
vn 0.220778 0.121986 -0.967558
vn 0.212354 0.298755 -0.930324
vn 0.618812 0.121986 -0.775926
vn 0.595007 0.298785 -0.746109
vn 0.894220 0.121986 -0.430629
vn 0.859733 0.298785 -0.414057
vn 0.900903 0.000000 0.433803
vn 1.000000 0.000000 0.000000
vn 0.623421 0.000000 0.781755
vn 0.222517 0.000000 0.974852
vn -0.222517 0.000000 0.974852
vn -0.623421 0.000000 0.781755
vn -0.900903 0.000000 0.433803
vn -1.000000 0.000000 0.000000
vn -0.900903 0.000000 -0.433803
vn -0.623421 0.000000 -0.781755
vn -0.222517 0.000000 -0.974852
vn 0.222517 0.000000 -0.974852
vn 0.623421 0.000000 -0.781755
vn 0.900903 0.000000 -0.433803
vn 0.000000 1.000000 0.000000
vn 0.000000 1.000000 0.000000
vn 0.472197 0.652902 -0.592077
vn 0.682293 0.652902 -0.328542
vn 0.000000 1.000000 0.000000
vn 0.168467 0.652902 -0.738326
vn 0.000000 1.000000 0.000000
vn -0.168467 0.652902 -0.738326
vn 0.000000 1.000000 0.000000
vn -0.472197 0.652902 -0.592077
vn 0.000000 1.000000 0.000000
vn -0.682293 0.652902 -0.328542
vn 0.000000 1.000000 0.000000
vn -0.757370 0.652902 0.000000
vn 0.000000 1.000000 0.000000
vn -0.682293 0.652902 0.328542
vn 0.000000 1.000000 0.000000
vn -0.472197 0.652902 0.592077
vn 0.000000 1.000000 0.000000
vn -0.168467 0.652902 0.738326
vn 0.000000 1.000000 0.000000
vn 0.168467 0.652902 0.738326
vn 0.000000 1.000000 0.000000
vn 0.472197 0.652902 0.592077
vn 0.000000 1.000000 0.000000
vn 0.682293 0.652902 0.328542
vn 0.000000 1.000000 0.000000
vn 0.757370 0.652902 0.000000
vn 0.623421 0.000000 -0.781755
vn 0.900903 0.000000 -0.433803
vn 0.222517 0.000000 -0.974852
vn -0.222517 0.000000 -0.974852
vn -0.623421 0.000000 -0.781755
vn -0.900903 0.000000 -0.433803
vn -1.000000 0.000000 0.000000
vn -0.900903 0.000000 0.433803
vn -0.623421 0.000000 0.781755
vn -0.222517 0.000000 0.974852
vn 0.222517 0.000000 0.974852
vn 0.623421 0.000000 0.781755
vn 0.900903 0.000000 0.433803
vn 1.000000 0.000000 0.000000
vn -0.285845 0.948300 0.137643
vn -0.197735 0.948300 0.248031
vn -0.134896 0.976286 0.169230
vn -0.222792 0.968840 0.107306
vn -0.070530 0.948300 0.309315
vn 0.070530 0.948300 0.309315
vn 0.197735 0.948300 0.248031
vn 0.134896 0.976286 0.169230
vn 0.285845 0.948300 0.137643
vn 0.222792 0.968840 0.107306
vn 0.317280 0.948300 0.000000
vn 0.247360 0.968840 0.000000
vn 0.285845 0.948300 -0.137643
vn 0.222792 0.968840 -0.107306
vn 0.197735 0.948300 -0.248031
vn 0.134896 0.976286 -0.169230
vn 0.070530 0.948300 -0.309315
vn 0.044131 0.980101 -0.193341
vn -0.070530 0.948300 -0.309315
vn -0.044131 0.980101 -0.193341
vn -0.197735 0.948300 -0.248031
vn -0.134896 0.976286 -0.169230
vn -0.285845 0.948300 -0.137643
vn -0.222792 0.968840 -0.107306
vn -0.317280 0.948300 0.000000
vn -0.247360 0.968840 0.000000
vn 0.000000 1.000000 0.000000
vn 0.000000 1.000000 0.000000
vn 0.000000 -1.000000 0.000000
vn 0.000000 -1.000000 0.000000
vn 0.803516 -0.452146 0.386895
vn 0.891900 -0.452146 0.000000
vn 0.629769 0.776689 0.000000
vn 0.567478 0.776689 0.273271
vn 0.556064 -0.452146 0.697278
vn 0.392633 0.776689 0.492370
vn 0.198376 -0.452146 0.869468
vn 0.140115 0.776689 0.613990
vn -0.198407 -0.452146 0.869468
vn -0.140115 0.776689 0.613990
vn -0.556095 -0.452146 0.697278
vn -0.392633 0.776689 0.492370
vn -0.803516 -0.452146 0.386895
vn -0.567478 0.776689 0.273271
vn -0.891900 -0.452146 0.000000
vn -0.629769 0.776689 0.000000
vn -0.803516 -0.452146 -0.386895
vn -0.567478 0.776689 -0.273271
vn -0.556095 -0.452146 -0.697278
vn -0.392633 0.776689 -0.492370
vn -0.198407 -0.452146 -0.869468
vn -0.140115 0.776689 -0.613990
vn 0.198407 -0.452146 -0.869468
vn 0.140115 0.776689 -0.613990
vn 0.556064 -0.452146 -0.697278
vn 0.392633 0.776689 -0.492370
vn 0.803516 -0.452146 -0.386895
vn 0.567478 0.776689 -0.273271
# 215 uv coords
vt 0.046946 0.223687
vt 0.673572 0.223456
vt 0.655560 0.298310
vt 0.620955 0.367126
vt 0.571064 0.425830
vt 0.508490 0.470782
vt 0.436817 0.499061
vt 0.360372 0.508727
vt 0.283921 0.499114
vt 0.212227 0.470888
vt 0.149623 0.425979
vt 0.099691 0.367309
vt 0.065018 0.298526
vt 0.851126 0.910846
vt 0.781114 0.912166
vt 0.711116 0.913302
vt 0.641024 0.914079
vt 0.570848 0.914529
vt 0.500629 0.914700
vt 0.430410 0.914607
vt 0.360233 0.914233
vt 0.290139 0.913533
vt 0.220138 0.912471
vt 0.150124 0.911224
vt 0.079692 0.910832
vt 0.921557 0.910381
vt 0.851989 0.770965
vt 0.780890 0.772019
vt 0.710465 0.772824
vt 0.640384 0.773399
vt 0.570446 0.773754
vt 0.500555 0.773898
vt 0.430664 0.773832
vt 0.360726 0.773553
vt 0.290645 0.773055
vt 0.220218 0.772323
vt 0.149119 0.771345
vt 0.077052 0.770135
vt 0.924055 0.769681
vt 0.847133 0.631240
vt 0.777752 0.631948
vt 0.708502 0.632374
vt 0.639213 0.632722
vt 0.569865 0.632973
vt 0.500481 0.633088
vt 0.431097 0.633050
vt 0.361748 0.632875
vt 0.292461 0.632602
vt 0.223210 0.632249
vt 0.153831 0.631614
vt 0.083870 0.629615
vt 0.917093 0.629168
vt 0.431713 0.478945
vt 0.360366 0.487978
vt 0.289012 0.478995
vt 0.222083 0.452613
vt 0.163617 0.410621
vt 0.116962 0.355743
vt 0.084561 0.291398
vt 0.067689 0.221624
vt 0.652827 0.221411
vt 0.636012 0.291199
vt 0.603674 0.355575
vt 0.557058 0.410485
vt 0.498623 0.452516
vt 0.259757 0.191361
vt 0.290708 0.152180
vt 0.335387 0.130442
vt 0.384969 0.130444
vt 0.429647 0.152184
vt 0.460597 0.191368
vt 0.471780 0.240068
vt 0.460595 0.288767
vt 0.429645 0.327948
vt 0.384966 0.349686
vt 0.335384 0.349684
vt 0.290707 0.327944
vt 0.259757 0.288762
vt 0.248572 0.240061
vt 0.429751 0.240067
vt 0.385016 0.240065
vt 0.335337 0.240064
vt 0.290601 0.240063
vt 0.932079 0.383245
vt 0.868642 0.383244
vt 0.798232 0.383247
vt 0.734795 0.383249
vt 0.045262 0.305829
vt 0.082211 0.379122
vt 0.055301 0.302041
vt 0.091106 0.373111
vt 0.135485 0.441619
vt 0.142683 0.433671
vt 0.202292 0.489451
vt 0.207352 0.480016
vt 0.278800 0.519511
vt 0.281409 0.509140
vt 0.360381 0.529748
vt 0.360376 0.519059
vt 0.441953 0.519454
vt 0.439336 0.509086
vt 0.518438 0.489337
vt 0.513371 0.479906
vt 0.585212 0.441459
vt 0.578009 0.433516
vt 0.638448 0.378928
vt 0.629548 0.372923
vt 0.675322 0.305595
vt 0.665279 0.301817
vt 0.694163 0.225682
vt 0.683679 0.224080
vt 0.026358 0.225930
vt 0.036840 0.224319
vt 0.798225 0.537495
vt 0.734787 0.506946
vt 0.734782 0.259553
vt 0.798222 0.228998
vt 0.868639 0.537493
vt 0.690890 0.451894
vt 0.675226 0.383251
vt 0.868642 0.228995
vt 0.690887 0.314605
vt 0.932080 0.506941
vt 0.932081 0.259548
vt 0.991648 0.383243
vt 0.975981 0.451890
vt 0.975981 0.314597
vt 0.486689 0.398977
vt 0.405381 0.438462
vt 0.314971 0.438459
vt 0.405386 0.041669
vt 0.486691 0.081156
vt 0.562827 0.240068
vt 0.542782 0.328154
vt 0.233663 0.398972
vt 0.314975 0.041666
vt 0.542783 0.151981
vt 0.177570 0.328147
vt 0.157524 0.240060
vt 0.233666 0.081150
vt 0.177572 0.151974
vt 0.084694 0.983555
vt 0.022693 0.988839
vt 0.008098 0.914589
vt 0.004402 0.768887
vt 0.150979 0.983891
vt 0.012671 0.622987
vt 0.219676 0.985247
vt 0.033146 0.540791
vt 0.092950 0.548609
vt 0.289491 0.986412
vt 0.157528 0.550458
vt 0.359757 0.987173
vt 0.224740 0.550902
vt 0.430188 0.987573
vt 0.293181 0.551120
vt 0.500669 0.987673
vt 0.362123 0.551320
vt 0.571149 0.987494
vt 0.431249 0.551463
vt 0.641578 0.987018
vt 0.500436 0.551492
vt 0.711841 0.986180
vt 0.569622 0.551386
vt 0.781652 0.984942
vt 0.638751 0.551167
vt 0.850346 0.983514
vt 0.707694 0.550892
vt 0.916630 0.983110
vt 0.776136 0.550601
vt 0.993154 0.914064
vt 0.978637 0.988330
vt 0.843351 0.550087
vt 0.996703 0.768359
vt 0.907927 0.548171
vt 0.988284 0.622467
vt 0.967724 0.540292
vt 0.685547 0.143045
vt 0.696897 0.142669
vt 0.707128 0.145995
vt 0.703666 0.227369
vt 0.675254 0.146286
vt 0.684302 0.308972
vt 0.655452 0.151563
vt 0.646403 0.384256
vt 0.623811 0.217384
vt 0.626802 0.150379
vt 0.591660 0.448514
vt 0.608719 0.281199
vt 0.522980 0.497730
vt 0.579503 0.339522
vt 0.444301 0.528693
vt 0.537433 0.389141
vt 0.360384 0.539278
vt 0.484771 0.427064
vt 0.276458 0.528753
vt 0.424540 0.450882
vt 0.197756 0.497848
vt 0.360355 0.459017
vt 0.129042 0.448680
vt 0.296165 0.450927
vt 0.074261 0.384457
vt 0.235917 0.427151
vt 0.036287 0.309213
vt 0.183227 0.389264
vt 0.016856 0.227626
vt 0.023539 0.142919
vt 0.034890 0.143286
vt 0.141119 0.339671
vt 0.013313 0.146255
vt 0.045185 0.146518
vt 0.111846 0.281374
vt 0.064993 0.151777
vt 0.096701 0.217570
vt 0.093642 0.150565
# 160 polygons
usemtl initialShadingGroup
s 1
g BARREL
f 1/175/1 2/177/2 69/176/3 70/52/4
f 2/149/2 3/150/5 68/51/6 69/147/3
f 3/150/5 4/152/7 67/50/8 68/51/6
f 4/152/7 5/154/9 66/49/10 67/50/8
f 5/154/9 6/156/11 65/48/12 66/49/10
f 6/156/11 7/158/13 64/47/14 65/48/12
f 7/158/13 8/160/15 63/46/16 64/47/14
f 8/160/15 9/162/17 62/45/18 63/46/16
f 9/162/17 10/164/19 61/44/20 62/45/18
f 10/164/19 11/166/21 60/43/22 61/44/20
f 11/166/21 12/168/23 59/42/24 60/43/22
f 12/168/23 13/170/25 58/41/26 59/42/24
f 13/170/25 14/173/27 57/40/28 58/41/26
f 14/173/27 1/175/1 70/52/4 57/40/28
f 3/121/5 118/85/29 119/86/30 4/117/7
s 2
f 114/81/31 115/82/32 101/68/33 102/69/34
s 1
f 30/15/35 29/14/36 121/167/37 122/165/38
f 31/16/39 30/15/35 122/165/38 123/163/40
f 32/17/41 31/16/39 123/163/40 124/161/42
f 33/18/43 32/17/41 124/161/42 125/159/44
f 34/19/45 33/18/43 125/159/44 126/157/46
f 35/20/47 34/19/45 126/157/46 127/155/48
f 36/21/49 35/20/47 127/155/48 128/153/50
f 37/22/51 36/21/49 128/153/50 129/151/52
f 38/23/53 37/22/51 129/151/52 130/148/54
f 39/24/55 38/23/53 130/148/54 131/146/56
f 40/25/57 39/24/55 131/146/56 132/142/58
f 41/144/59 40/25/57 132/142/58 133/143/60
f 42/26/61 41/171/59 133/172/60 134/169/62
f 29/14/36 42/26/61 134/169/62 121/167/37
f 44/28/63 43/27/64 29/14/36 30/15/35
f 45/29/65 44/28/63 30/15/35 31/16/39
f 46/30/66 45/29/65 31/16/39 32/17/41
f 47/31/67 46/30/66 32/17/41 33/18/43
f 48/32/68 47/31/67 33/18/43 34/19/45
f 49/33/69 48/32/68 34/19/45 35/20/47
f 50/34/70 49/33/69 35/20/47 36/21/49
f 51/35/71 50/34/70 36/21/49 37/22/51
f 52/36/72 51/35/71 37/22/51 38/23/53
f 53/37/73 52/36/72 38/23/53 39/24/55
f 54/38/74 53/37/73 39/24/55 40/25/57
f 55/145/75 54/38/74 40/25/57 41/144/59
f 56/39/76 55/174/75 41/171/59 42/26/61
f 43/27/64 56/39/76 42/26/61 29/14/36
f 58/41/26 57/40/28 43/27/64 44/28/63
f 59/42/24 58/41/26 44/28/63 45/29/65
f 60/43/22 59/42/24 45/29/65 46/30/66
f 61/44/20 60/43/22 46/30/66 47/31/67
f 62/45/18 61/44/20 47/31/67 48/32/68
f 63/46/16 62/45/18 48/32/68 49/33/69
f 64/47/14 63/46/16 49/33/69 50/34/70
f 65/48/12 64/47/14 50/34/70 51/35/71
f 66/49/10 65/48/12 51/35/71 52/36/72
f 67/50/8 66/49/10 52/36/72 53/37/73
f 68/51/6 67/50/8 53/37/73 54/38/74
f 69/147/3 68/51/6 54/38/74 55/145/75
f 70/52/4 69/176/3 55/174/75 56/39/76
f 57/40/28 70/52/4 56/39/76 43/27/64
f 22/7/77 23/8/78 72/54/79 71/53/80
f 23/8/78 24/9/81 73/55/82 72/54/79
f 24/9/81 25/10/83 74/56/84 73/55/82
f 25/10/83 26/11/85 75/57/86 74/56/84
f 26/11/85 27/12/87 76/58/88 75/57/86
f 27/12/87 28/13/89 77/59/90 76/58/88
f 28/13/89 15/1/91 78/60/92 77/59/90
f 15/1/91 16/211/93 79/213/94 78/60/92
f 16/182/93 17/2/95 80/61/96 79/184/94
f 17/2/95 18/3/97 81/62/98 80/61/96
f 18/3/97 19/4/99 82/63/100 81/62/98
f 19/4/99 20/5/101 83/64/102 82/63/100
f 20/5/101 21/6/103 84/65/104 83/64/102
f 21/6/103 22/7/77 71/53/80 84/65/104
f 71/53/80 72/54/79 86/199/105 85/197/106
f 72/54/79 73/55/82 87/201/107 86/199/105
f 73/55/82 74/56/84 88/203/108 87/201/107
f 74/56/84 75/57/86 89/205/109 88/203/108
f 75/57/86 76/58/88 90/209/110 89/205/109
f 76/58/88 77/59/90 91/212/111 90/209/110
f 77/59/90 78/60/92 92/214/112 91/212/111
f 78/60/92 79/213/94 93/215/113 92/214/112
f 79/184/94 80/61/96 94/186/114 93/187/113
f 80/61/96 81/62/98 95/189/115 94/186/114
f 81/62/98 82/63/100 96/191/116 95/189/115
f 82/63/100 83/64/102 97/193/117 96/191/116
f 83/64/102 84/65/104 98/195/118 97/193/117
f 84/65/104 71/53/80 85/197/106 98/195/118
s 2
f 85/141/119 86/140/120 100/67/121 99/66/122
f 86/140/120 87/136/123 101/68/33 100/67/121
f 87/136/123 88/131/124 102/69/34 101/68/33
f 88/131/124 89/132/125 103/70/126 102/69/34
f 89/132/125 90/137/127 104/71/128 103/70/126
f 90/137/127 91/133/129 105/72/130 104/71/128
f 91/133/129 92/134/131 106/73/132 105/72/130
f 92/134/131 93/128/133 107/74/134 106/73/132
f 93/128/133 94/129/135 108/75/136 107/74/134
f 94/129/135 95/130/137 109/76/138 108/75/136
f 95/130/137 96/135/139 110/77/140 109/76/138
f 96/135/139 97/138/141 111/78/142 110/77/140
f 97/138/141 98/139/143 112/79/144 111/78/142
f 98/139/143 85/141/119 99/66/122 112/79/144
f 105/72/130 113/80/145 103/70/126 104/71/128
f 99/66/122 100/67/121 116/83/146 112/79/144
f 115/82/32 116/83/146 100/67/121 101/68/33
f 113/80/145 114/81/31 102/69/34 103/70/126
f 107/74/134 113/80/145 105/72/130 106/73/132
f 108/75/136 114/81/31 113/80/145 107/74/134
f 109/76/138 115/82/32 114/81/31 108/75/136
f 110/77/140 116/83/146 115/82/32 109/76/138
f 112/79/144 116/83/146 110/77/140 111/78/142
s 1
f 14/125/27 117/84/147 2/124/2 1/127/1
f 5/116/9 120/87/148 7/120/13 6/122/11
f 4/117/7 119/86/30 120/87/148 5/116/9
f 2/124/2 117/84/147 118/85/29 3/121/5
f 14/125/27 13/126/25 12/123/23 117/84/147
f 118/85/29 117/84/147 12/123/23 11/118/21
f 119/86/30 118/85/29 11/118/21 10/114/19
f 120/87/148 119/86/30 10/114/19 9/115/17
f 7/120/13 120/87/148 9/115/17 8/119/15
f 136/89/149 135/88/150 137/90/151 138/91/152
f 139/92/153 136/89/149 138/91/152 140/93/154
f 141/94/155 139/92/153 140/93/154 142/95/156
f 143/96/157 141/94/155 142/95/156 144/97/158
f 145/98/159 143/96/157 144/97/158 146/99/160
f 147/100/161 145/98/159 146/99/160 148/101/162
f 149/102/163 147/100/161 148/101/162 150/103/164
f 151/104/165 149/102/163 150/103/164 152/105/166
f 153/106/167 151/104/165 152/105/166 154/107/168
f 155/108/169 153/106/167 154/107/168 156/109/170
f 157/110/171 155/108/169 156/109/170 158/111/172
f 159/179/173 157/110/171 158/111/172 160/178/174
f 161/112/175 159/207/173 160/208/174 162/113/176
f 135/88/150 161/112/175 162/113/176 137/90/151
f 122/202/38 121/204/37 135/88/150 136/89/149
f 28/13/89 27/12/87 138/91/152 137/90/151
f 123/200/40 122/202/38 136/89/149 139/92/153
f 27/12/87 26/11/85 140/93/154 138/91/152
f 124/198/42 123/200/40 139/92/153 141/94/155
f 26/11/85 25/10/83 142/95/156 140/93/154
f 125/196/44 124/198/42 141/94/155 143/96/157
f 25/10/83 24/9/81 144/97/158 142/95/156
f 126/194/46 125/196/44 143/96/157 145/98/159
f 24/9/81 23/8/78 146/99/160 144/97/158
f 127/192/48 126/194/46 145/98/159 147/100/161
f 23/8/78 22/7/77 148/101/162 146/99/160
f 128/190/50 127/192/48 147/100/161 149/102/163
f 22/7/77 21/6/103 150/103/164 148/101/162
f 129/188/52 128/190/50 149/102/163 151/104/165
f 21/6/103 20/5/101 152/105/166 150/103/164
f 130/185/54 129/188/52 151/104/165 153/106/167
f 20/5/101 19/4/99 154/107/168 152/105/166
f 131/183/56 130/185/54 153/106/167 155/108/169
f 19/4/99 18/3/97 156/109/170 154/107/168
f 132/181/58 131/183/56 155/108/169 157/110/171
f 18/3/97 17/2/95 158/111/172 156/109/170
f 133/180/60 132/181/58 157/110/171 159/179/173
f 17/2/95 16/182/93 160/178/174 158/111/172
f 134/206/62 133/210/60 159/207/173 161/112/175
f 16/211/93 15/1/91 162/113/176 160/208/174
f 121/204/37 134/206/62 161/112/175 135/88/150
f 15/1/91 28/13/89 137/90/151 162/113/176
# totals: 162 215 176 160
