# Blender v3.1.2 OBJ File: 'ShmongusGame.blend'
# www.blender.org
mtllib ShmongusGame.mtl
o Cube_Cube.001
v -3.104034 0.000000 3.104034
v -2.586608 1.000000 2.586608
v -3.104034 0.000000 -3.104034
v -2.586608 1.000000 -2.586608
v 3.104034 0.000000 3.104034
v 2.586608 1.000000 2.586608
v 3.104034 0.000000 -3.104034
v 2.586608 1.000000 -2.586608
v -3.006033 0.942006 3.006033
v -2.941693 1.000000 2.941693
v -2.941693 1.000000 -2.941693
v -3.006033 0.942006 -3.006033
v 2.941693 1.000000 -2.941693
v 3.006033 0.942006 -3.006033
v 2.941693 1.000000 2.941693
v 3.006033 0.942006 3.006033
v -2.459775 1.315181 2.459775
v -2.409225 1.349328 2.409225
v -2.409225 1.349328 -2.409225
v -2.459775 1.315181 -2.459775
v 2.409225 1.349328 -2.409225
v 2.459775 1.315181 -2.459775
v 2.409225 1.349328 2.409225
v 2.459775 1.315181 2.459775
vt 0.642225 0.732775
vt 0.857775 0.732775
vt 0.872571 0.747571
vt 0.627429 0.747571
vt 0.857775 0.517225
vt 0.642225 0.517225
vt 0.627429 0.502429
vt 0.872571 0.502429
vt 0.375000 0.000000
vt 0.610502 0.000000
vt 0.610502 0.250000
vt 0.375000 0.250000
vt 0.125000 0.500000
vt 0.375000 0.500000
vt 0.375000 0.750000
vt 0.125000 0.750000
vt 0.857775 0.517225
vt 0.642225 0.517225
vt 0.610502 0.500000
vt 0.610502 0.750000
vt 0.642225 0.732775
vt 0.857775 0.732775
vt 0.625000 0.002429
vt 0.625000 0.247571
vt 0.625000 0.252429
vt 0.625000 0.497571
vt 0.625000 0.752429
vt 0.625000 0.997571
vt 0.610502 1.000000
vt 0.375000 1.000000
vt 0.856154 0.731153
vt 0.856154 0.518847
vt 0.643846 0.518847
vt 0.643847 0.731154
vn 0.0000 1.0000 0.0000
vn -0.9946 0.1035 0.0000
vn 0.0000 -1.0000 0.0000
vn 0.0000 0.3733 -0.9277
vn 0.0000 0.1035 -0.9946
vn 0.9946 0.1035 0.0000
vn 0.0000 0.3733 0.9277
vn -0.9277 0.3733 0.0000
vn 0.9277 0.3733 0.0000
vn -0.6695 0.7428 0.0000
vn 0.0000 0.7428 -0.6695
vn 0.6695 0.7428 0.0000
vn 0.0000 0.7428 0.6695
vn 0.0000 0.1035 0.9946
vn -0.5598 0.8286 0.0000
vn 0.0000 0.8286 -0.5598
vn 0.5598 0.8286 0.0000
vn 0.0000 0.8286 0.5598
g Cube_Cube.001_None
usemtl None
s off
f 6/1/1 2/2/1 10/3/1 15/4/1
f 4/5/1 8/6/1 13/7/1 11/8/1
f 8/6/1 6/1/1 15/4/1 13/7/1
f 1/9/2 9/10/2 12/11/2 3/12/2
f 3/13/3 7/14/3 5/15/3 1/16/3
f 8/6/4 4/5/4 20/17/4 22/18/4
f 3/12/5 12/11/5 14/19/5 7/14/5
f 7/14/6 14/19/6 16/20/6 5/15/6
f 2/2/1 4/5/1 11/8/1 10/3/1
f 2/2/7 6/1/7 24/21/7 17/22/7
f 4/5/8 2/2/8 17/22/8 20/17/8
f 6/1/9 8/6/9 22/18/9 24/21/9
f 10/23/10 11/24/10 12/11/10 9/10/10
f 11/25/11 13/26/11 14/19/11 12/11/11
f 13/7/12 15/4/12 16/20/12 14/19/12
f 15/27/13 10/28/13 9/29/13 16/20/13
f 5/15/14 16/20/14 9/29/14 1/30/14
f 18/31/15 19/32/15 20/17/15 17/22/15
f 19/32/16 21/33/16 22/18/16 20/17/16
f 21/33/17 23/34/17 24/21/17 22/18/17
f 23/34/18 18/31/18 17/22/18 24/21/18
f 21/33/1 19/32/1 18/31/1 23/34/1
o Cube.001_Cube.002
v -2.735754 0.965940 2.841273
v -2.833678 0.965940 2.743349
v -2.833678 5.792661 2.743349
v -2.735754 5.792661 2.841273
v -2.833678 0.965940 1.843795
v -2.735754 0.965940 1.745871
v -2.735754 5.792661 1.745871
v -2.833678 5.792661 1.843795
v -1.738276 0.965940 2.743349
v -1.836200 0.965940 2.841273
v -1.836200 5.792661 2.841273
v -1.738276 5.792661 2.743349
v -1.836200 0.965940 1.745871
v -1.738276 0.965940 1.843795
v -1.738276 5.792661 1.843795
v -1.836200 5.792661 1.745871
v -2.625866 1.931284 2.731230
v -2.723635 1.931284 2.633460
v -2.625935 2.896628 2.731230
v -2.723635 2.896628 2.633530
v -2.625935 3.861972 2.731230
v -2.723635 3.861972 2.633530
v -2.625866 4.827317 2.731230
v -2.723635 4.827317 2.633460
v -2.625866 4.827317 1.855914
v -2.723635 4.827317 1.953683
v -2.625935 3.861972 1.855914
v -2.723635 3.861972 1.953614
v -2.625935 2.896628 1.855914
v -2.723635 2.896628 1.953614
v -2.625866 1.931284 1.855914
v -2.723635 1.931284 1.953683
v -1.848320 4.827317 1.953683
v -1.946089 4.827317 1.855914
v -1.848320 3.861972 1.953614
v -1.946020 3.861972 1.855914
v -1.848320 2.896628 1.953614
v -1.946020 2.896628 1.855914
v -1.848320 1.931284 1.953683
v -1.946089 1.931284 1.855914
v -1.946089 4.827317 2.731230
v -1.848320 4.827317 2.633460
v -1.946020 3.861972 2.731230
v -1.848320 3.861972 2.633530
v -1.946020 2.896628 2.731230
v -1.848320 2.896628 2.633530
v -1.946089 1.931284 2.731230
v -1.848320 1.931284 2.633460
v -2.625721 5.149098 2.731230
v -2.723635 5.149098 2.633315
v -2.833678 5.470880 2.743305
v -2.735710 5.470880 2.841273
v -2.735710 5.470880 1.745871
v -2.833678 5.470880 1.843839
v -2.723635 5.149098 1.953828
v -2.625721 5.149098 1.855914
v -1.738276 5.470880 1.843839
v -1.836244 5.470880 1.745871
v -1.946234 5.149098 1.855914
v -1.848320 5.149098 1.953828
v -1.836244 5.470880 2.841273
v -1.738276 5.470880 2.743305
v -1.848320 5.149098 2.633315
v -1.946234 5.149098 2.731230
v -2.625721 1.609503 1.855914
v -2.723635 1.609503 1.953828
v -2.833678 1.287721 1.843839
v -2.735710 1.287721 1.745871
v -1.848320 1.609503 1.953828
v -1.946234 1.609503 1.855914
v -1.836244 1.287721 1.745871
v -1.738276 1.287721 1.843839
v -1.946234 1.609503 2.731230
v -1.848320 1.609503 2.633315
v -1.738276 1.287721 2.743305
v -1.836244 1.287721 2.841273
v -2.735710 1.287721 2.841273
v -2.833678 1.287721 2.743305
v -2.723635 1.609503 2.633315
v -2.625721 1.609503 2.731230
v 2.735754 0.965940 2.841273
v 2.833678 0.965940 2.743349
v 2.833678 5.792661 2.743349
v 2.735754 5.792661 2.841273
v 2.833678 0.965940 1.843795
v 2.735754 0.965940 1.745871
v 2.735754 5.792661 1.745871
v 2.833678 5.792661 1.843795
v 1.738276 0.965940 2.743349
v 1.836200 0.965940 2.841273
v 1.836200 5.792661 2.841273
v 1.738276 5.792661 2.743349
v 1.836200 0.965940 1.745871
v 1.738276 0.965940 1.843795
v 1.738276 5.792661 1.843795
v 1.836200 5.792661 1.745871
v 2.625866 1.931284 2.731230
v 2.723635 1.931284 2.633460
v 2.625935 2.896628 2.731230
v 2.723635 2.896628 2.633530
v 2.625935 3.861972 2.731230
v 2.723635 3.861972 2.633530
v 2.625866 4.827317 2.731230
v 2.723635 4.827317 2.633460
v 2.625866 4.827317 1.855914
v 2.723635 4.827317 1.953683
v 2.625935 3.861972 1.855914
v 2.723635 3.861972 1.953614
v 2.625935 2.896628 1.855914
v 2.723635 2.896628 1.953614
v 2.625866 1.931284 1.855914
v 2.723635 1.931284 1.953683
v 1.848320 4.827317 1.953683
v 1.946089 4.827317 1.855914
v 1.848320 3.861972 1.953614
v 1.946020 3.861972 1.855914
v 1.848320 2.896628 1.953614
v 1.946020 2.896628 1.855914
v 1.848320 1.931284 1.953683
v 1.946089 1.931284 1.855914
v 1.946089 4.827317 2.731230
v 1.848320 4.827317 2.633460
v 1.946020 3.861972 2.731230
v 1.848320 3.861972 2.633530
v 1.946020 2.896628 2.731230
v 1.848320 2.896628 2.633530
v 1.946089 1.931284 2.731230
v 1.848320 1.931284 2.633460
v 2.625721 5.149098 2.731230
v 2.723635 5.149098 2.633315
v 2.833678 5.470880 2.743305
v 2.735710 5.470880 2.841273
v 2.735710 5.470880 1.745871
v 2.833678 5.470880 1.843839
v 2.723635 5.149098 1.953828
v 2.625721 5.149098 1.855914
v 1.738276 5.470880 1.843839
v 1.836244 5.470880 1.745871
v 1.946234 5.149098 1.855914
v 1.848320 5.149098 1.953828
v 1.836244 5.470880 2.841273
v 1.738276 5.470880 2.743305
v 1.848320 5.149098 2.633315
v 1.946234 5.149098 2.731230
v 2.625721 1.609503 1.855914
v 2.723635 1.609503 1.953828
v 2.833678 1.287721 1.843839
v 2.735710 1.287721 1.745871
v 1.848320 1.609503 1.953828
v 1.946234 1.609503 1.855914
v 1.836244 1.287721 1.745871
v 1.738276 1.287721 1.843839
v 1.946234 1.609503 2.731230
v 1.848320 1.609503 2.633315
v 1.738276 1.287721 2.743305
v 1.836244 1.287721 2.841273
v 2.735710 1.287721 2.841273
v 2.833678 1.287721 2.743305
v 2.723635 1.609503 2.633315
v 2.625721 1.609503 2.731230
v -2.735754 0.965940 -2.841273
v -2.833678 0.965940 -2.743349
v -2.833678 5.792661 -2.743349
v -2.735754 5.792661 -2.841273
v -2.833678 0.965940 -1.843795
v -2.735754 0.965940 -1.745871
v -2.735754 5.792661 -1.745871
v -2.833678 5.792661 -1.843795
v -1.738276 0.965940 -2.743349
v -1.836200 0.965940 -2.841273
v -1.836200 5.792661 -2.841273
v -1.738276 5.792661 -2.743349
v -1.836200 0.965940 -1.745871
v -1.738276 0.965940 -1.843795
v -1.738276 5.792661 -1.843795
v -1.836200 5.792661 -1.745871
v -2.625866 1.931284 -2.731230
v -2.723635 1.931284 -2.633460
v -2.625935 2.896628 -2.731230
v -2.723635 2.896628 -2.633530
v -2.625935 3.861972 -2.731230
v -2.723635 3.861972 -2.633530
v -2.625866 4.827317 -2.731230
v -2.723635 4.827317 -2.633460
v -2.625866 4.827317 -1.855914
v -2.723635 4.827317 -1.953683
v -2.625935 3.861972 -1.855914
v -2.723635 3.861972 -1.953614
v -2.625935 2.896628 -1.855914
v -2.723635 2.896628 -1.953614
v -2.625866 1.931284 -1.855914
v -2.723635 1.931284 -1.953683
v -1.848320 4.827317 -1.953683
v -1.946089 4.827317 -1.855914
v -1.848320 3.861972 -1.953614
v -1.946020 3.861972 -1.855914
v -1.848320 2.896628 -1.953614
v -1.946020 2.896628 -1.855914
v -1.848320 1.931284 -1.953683
v -1.946089 1.931284 -1.855914
v -1.946089 4.827317 -2.731230
v -1.848320 4.827317 -2.633460
v -1.946020 3.861972 -2.731230
v -1.848320 3.861972 -2.633530
v -1.946020 2.896628 -2.731230
v -1.848320 2.896628 -2.633530
v -1.946089 1.931284 -2.731230
v -1.848320 1.931284 -2.633460
v -2.625721 5.149098 -2.731230
v -2.723635 5.149098 -2.633315
v -2.833678 5.470880 -2.743305
v -2.735710 5.470880 -2.841273
v -2.735710 5.470880 -1.745871
v -2.833678 5.470880 -1.843839
v -2.723635 5.149098 -1.953828
v -2.625721 5.149098 -1.855914
v -1.738276 5.470880 -1.843839
v -1.836244 5.470880 -1.745871
v -1.946234 5.149098 -1.855914
v -1.848320 5.149098 -1.953828
v -1.836244 5.470880 -2.841273
v -1.738276 5.470880 -2.743305
v -1.848320 5.149098 -2.633315
v -1.946234 5.149098 -2.731230
v -2.625721 1.609503 -1.855914
v -2.723635 1.609503 -1.953828
v -2.833678 1.287721 -1.843839
v -2.735710 1.287721 -1.745871
v -1.848320 1.609503 -1.953828
v -1.946234 1.609503 -1.855914
v -1.836244 1.287721 -1.745871
v -1.738276 1.287721 -1.843839
v -1.946234 1.609503 -2.731230
v -1.848320 1.609503 -2.633315
v -1.738276 1.287721 -2.743305
v -1.836244 1.287721 -2.841273
v -2.735710 1.287721 -2.841273
v -2.833678 1.287721 -2.743305
v -2.723635 1.609503 -2.633315
v -2.625721 1.609503 -2.731230
v 2.735754 0.965940 -2.841273
v 2.833678 0.965940 -2.743349
v 2.833678 5.792661 -2.743349
v 2.735754 5.792661 -2.841273
v 2.833678 0.965940 -1.843795
v 2.735754 0.965940 -1.745871
v 2.735754 5.792661 -1.745871
v 2.833678 5.792661 -1.843795
v 1.738276 0.965940 -2.743349
v 1.836200 0.965940 -2.841273
v 1.836200 5.792661 -2.841273
v 1.738276 5.792661 -2.743349
v 1.836200 0.965940 -1.745871
v 1.738276 0.965940 -1.843795
v 1.738276 5.792661 -1.843795
v 1.836200 5.792661 -1.745871
v 2.625866 1.931284 -2.731230
v 2.723635 1.931284 -2.633460
v 2.625935 2.896628 -2.731230
v 2.723635 2.896628 -2.633530
v 2.625935 3.861972 -2.731230
v 2.723635 3.861972 -2.633530
v 2.625866 4.827317 -2.731230
v 2.723635 4.827317 -2.633460
v 2.625866 4.827317 -1.855914
v 2.723635 4.827317 -1.953683
v 2.625935 3.861972 -1.855914
v 2.723635 3.861972 -1.953614
v 2.625935 2.896628 -1.855914
v 2.723635 2.896628 -1.953614
v 2.625866 1.931284 -1.855914
v 2.723635 1.931284 -1.953683
v 1.848320 4.827317 -1.953683
v 1.946089 4.827317 -1.855914
v 1.848320 3.861972 -1.953614
v 1.946020 3.861972 -1.855914
v 1.848320 2.896628 -1.953614
v 1.946020 2.896628 -1.855914
v 1.848320 1.931284 -1.953683
v 1.946089 1.931284 -1.855914
v 1.946089 4.827317 -2.731230
v 1.848320 4.827317 -2.633460
v 1.946020 3.861972 -2.731230
v 1.848320 3.861972 -2.633530
v 1.946020 2.896628 -2.731230
v 1.848320 2.896628 -2.633530
v 1.946089 1.931284 -2.731230
v 1.848320 1.931284 -2.633460
v 2.625721 5.149098 -2.731230
v 2.723635 5.149098 -2.633315
v 2.833678 5.470880 -2.743305
v 2.735710 5.470880 -2.841273
v 2.735710 5.470880 -1.745871
v 2.833678 5.470880 -1.843839
v 2.723635 5.149098 -1.953828
v 2.625721 5.149098 -1.855914
v 1.738276 5.470880 -1.843839
v 1.836244 5.470880 -1.745871
v 1.946234 5.149098 -1.855914
v 1.848320 5.149098 -1.953828
v 1.836244 5.470880 -2.841273
v 1.738276 5.470880 -2.743305
v 1.848320 5.149098 -2.633315
v 1.946234 5.149098 -2.731230
v 2.625721 1.609503 -1.855914
v 2.723635 1.609503 -1.953828
v 2.833678 1.287721 -1.843839
v 2.735710 1.287721 -1.745871
v 1.848320 1.609503 -1.953828
v 1.946234 1.609503 -1.855914
v 1.836244 1.287721 -1.745871
v 1.738276 1.287721 -1.843839
v 1.946234 1.609503 -2.731230
v 1.848320 1.609503 -2.633315
v 1.738276 1.287721 -2.743305
v 1.836244 1.287721 -2.841273
v 2.735710 1.287721 -2.841273
v 2.833678 1.287721 -2.743305
v 2.723635 1.609503 -2.633315
v 2.625721 1.609503 -2.731230
vt 0.625000 0.522349
vt 0.647349 0.500000
vt 0.852651 0.500000
vt 0.875000 0.522349
vt 0.875000 0.727651
vt 0.852651 0.750000
vt 0.647349 0.750000
vt 0.625000 0.727651
vt 0.375000 0.522349
vt 0.391667 0.522359
vt 0.391667 0.727641
vt 0.375000 0.727651
vt 0.408333 0.027965
vt 0.425000 0.027924
vt 0.425000 0.222076
vt 0.408333 0.222035
vt 0.608333 0.022359
vt 0.625000 0.022349
vt 0.625000 0.227651
vt 0.608333 0.227641
vt 0.375000 0.772349
vt 0.391667 0.772359
vt 0.391667 0.977641
vt 0.375000 0.977651
vt 0.375000 0.272349
vt 0.391667 0.272359
vt 0.391667 0.477641
vt 0.375000 0.477651
vt 0.475000 0.027904
vt 0.475000 0.222096
vt 0.525000 0.027904
vt 0.525000 0.222096
vt 0.575000 0.027924
vt 0.575000 0.222076
vt 0.575000 0.777924
vt 0.591667 0.777965
vt 0.591667 0.972035
vt 0.575000 0.972076
vt 0.591667 0.027965
vt 0.591667 0.222035
vt 0.408333 0.527965
vt 0.425000 0.527924
vt 0.425000 0.722076
vt 0.408333 0.722035
vt 0.475000 0.527904
vt 0.475000 0.722096
vt 0.525000 0.527904
vt 0.525000 0.722096
vt 0.575000 0.527924
vt 0.591667 0.527965
vt 0.591667 0.722035
vt 0.575000 0.722076
vt 0.408333 0.277965
vt 0.425000 0.277924
vt 0.425000 0.472076
vt 0.408333 0.472035
vt 0.475000 0.277904
vt 0.475000 0.472096
vt 0.525000 0.277904
vt 0.525000 0.472096
vt 0.408333 0.777965
vt 0.425000 0.777924
vt 0.425000 0.972076
vt 0.408333 0.972035
vt 0.475000 0.777904
vt 0.475000 0.972096
vt 0.525000 0.777904
vt 0.525000 0.972096
vt 0.591667 0.277965
vt 0.608333 0.272359
vt 0.608333 0.477641
vt 0.591667 0.472035
vt 0.575000 0.277924
vt 0.575000 0.472076
vt 0.608333 0.522359
vt 0.608333 0.727641
vt 0.608333 0.772359
vt 0.608333 0.977641
vt 0.125000 0.522349
vt 0.147349 0.500000
vt 0.352651 0.500000
vt 0.352651 0.750000
vt 0.147349 0.750000
vt 0.125000 0.727651
vt 0.625000 0.272349
vt 0.625000 0.477651
vt 0.391667 0.022359
vt 0.391667 0.227641
vt 0.625000 0.772349
vt 0.625000 0.977651
vt 0.608333 0.000000
vt 0.625000 0.000000
vt 0.375000 0.227651
vt 0.408333 0.000000
vt 0.425000 0.000000
vt 0.475000 0.000000
vt 0.525000 0.000000
vt 0.575000 0.000000
vt 0.591667 0.000000
vt 0.606927 0.000000
vt 0.375000 0.000000
vt 0.391667 0.000000
vt 0.375000 0.022349
vt 0.393073 0.000000
vt 0.625000 0.522349
vt 0.625000 0.727651
vt 0.647349 0.750000
vt 0.852651 0.750000
vt 0.875000 0.727651
vt 0.875000 0.522349
vt 0.852651 0.500000
vt 0.647349 0.500000
vt 0.375000 0.522349
vt 0.375000 0.727651
vt 0.391667 0.727641
vt 0.391667 0.522359
vt 0.408333 0.027965
vt 0.408333 0.222035
vt 0.425000 0.222076
vt 0.425000 0.027924
vt 0.608333 0.022359
vt 0.608333 0.227641
vt 0.625000 0.227651
vt 0.625000 0.022349
vt 0.375000 0.772349
vt 0.375000 0.977651
vt 0.391667 0.977641
vt 0.391667 0.772359
vt 0.375000 0.272349
vt 0.375000 0.477651
vt 0.391667 0.477641
vt 0.391667 0.272359
vt 0.475000 0.222096
vt 0.475000 0.027904
vt 0.525000 0.222096
vt 0.525000 0.027904
vt 0.575000 0.222076
vt 0.575000 0.027924
vt 0.575000 0.777924
vt 0.575000 0.972076
vt 0.591667 0.972035
vt 0.591667 0.777965
vt 0.591667 0.027965
vt 0.591667 0.222035
vt 0.408333 0.527965
vt 0.408333 0.722035
vt 0.425000 0.722076
vt 0.425000 0.527924
vt 0.475000 0.722096
vt 0.475000 0.527904
vt 0.525000 0.722096
vt 0.525000 0.527904
vt 0.575000 0.527924
vt 0.575000 0.722076
vt 0.591667 0.722035
vt 0.591667 0.527965
vt 0.408333 0.277965
vt 0.408333 0.472035
vt 0.425000 0.472076
vt 0.425000 0.277924
vt 0.475000 0.472096
vt 0.475000 0.277904
vt 0.525000 0.472096
vt 0.525000 0.277904
vt 0.408333 0.777965
vt 0.408333 0.972035
vt 0.425000 0.972076
vt 0.425000 0.777924
vt 0.475000 0.972096
vt 0.475000 0.777904
vt 0.525000 0.972096
vt 0.525000 0.777904
vt 0.591667 0.277965
vt 0.591667 0.472035
vt 0.608333 0.477641
vt 0.608333 0.272359
vt 0.575000 0.472076
vt 0.575000 0.277924
vt 0.608333 0.727641
vt 0.608333 0.522359
vt 0.608333 0.977641
vt 0.608333 0.772359
vt 0.125000 0.522349
vt 0.125000 0.727651
vt 0.147349 0.750000
vt 0.352651 0.750000
vt 0.352651 0.500000
vt 0.147349 0.500000
vt 0.625000 0.477651
vt 0.625000 0.272349
vt 0.391667 0.022359
vt 0.391667 0.227641
vt 0.625000 0.977651
vt 0.625000 0.772349
vt 0.608333 0.000000
vt 0.625000 0.000000
vt 0.375000 0.227651
vt 0.408333 0.000000
vt 0.425000 0.000000
vt 0.475000 0.000000
vt 0.525000 0.000000
vt 0.575000 0.000000
vt 0.591667 0.000000
vt 0.606927 0.000000
vt 0.375000 0.000000
vt 0.375000 0.022349
vt 0.391667 0.000000
vt 0.393073 0.000000
vt 0.625000 0.522349
vt 0.625000 0.727651
vt 0.647349 0.750000
vt 0.852651 0.750000
vt 0.875000 0.727651
vt 0.875000 0.522349
vt 0.852651 0.500000
vt 0.647349 0.500000
vt 0.375000 0.522349
vt 0.375000 0.727651
vt 0.391667 0.727641
vt 0.391667 0.522359
vt 0.408333 0.027965
vt 0.408333 0.222035
vt 0.425000 0.222076
vt 0.425000 0.027924
vt 0.608333 0.022359
vt 0.608333 0.227641
vt 0.625000 0.227651
vt 0.625000 0.022349
vt 0.375000 0.772349
vt 0.375000 0.977651
vt 0.391667 0.977641
vt 0.391667 0.772359
vt 0.375000 0.272349
vt 0.375000 0.477651
vt 0.391667 0.477641
vt 0.391667 0.272359
vt 0.475000 0.222096
vt 0.475000 0.027904
vt 0.525000 0.222096
vt 0.525000 0.027904
vt 0.575000 0.222076
vt 0.575000 0.027924
vt 0.575000 0.777924
vt 0.575000 0.972076
vt 0.591667 0.972035
vt 0.591667 0.777965
vt 0.591667 0.027965
vt 0.591667 0.222035
vt 0.408333 0.527965
vt 0.408333 0.722035
vt 0.425000 0.722076
vt 0.425000 0.527924
vt 0.475000 0.722096
vt 0.475000 0.527904
vt 0.525000 0.722096
vt 0.525000 0.527904
vt 0.575000 0.527924
vt 0.575000 0.722076
vt 0.591667 0.722035
vt 0.591667 0.527965
vt 0.408333 0.277965
vt 0.408333 0.472035
vt 0.425000 0.472076
vt 0.425000 0.277924
vt 0.475000 0.472096
vt 0.475000 0.277904
vt 0.525000 0.472096
vt 0.525000 0.277904
vt 0.408333 0.777965
vt 0.408333 0.972035
vt 0.425000 0.972076
vt 0.425000 0.777924
vt 0.475000 0.972096
vt 0.475000 0.777904
vt 0.525000 0.972096
vt 0.525000 0.777904
vt 0.591667 0.277965
vt 0.591667 0.472035
vt 0.608333 0.477641
vt 0.608333 0.272359
vt 0.575000 0.472076
vt 0.575000 0.277924
vt 0.608333 0.727641
vt 0.608333 0.522359
vt 0.608333 0.977641
vt 0.608333 0.772359
vt 0.125000 0.522349
vt 0.125000 0.727651
vt 0.147349 0.750000
vt 0.352651 0.750000
vt 0.352651 0.500000
vt 0.147349 0.500000
vt 0.625000 0.477651
vt 0.625000 0.272349
vt 0.391667 0.022359
vt 0.391667 0.227641
vt 0.625000 0.977651
vt 0.625000 0.772349
vt 0.608333 0.000000
vt 0.625000 0.000000
vt 0.375000 0.227651
vt 0.408333 0.000000
vt 0.425000 0.000000
vt 0.475000 0.000000
vt 0.525000 0.000000
vt 0.575000 0.000000
vt 0.591667 0.000000
vt 0.606927 0.000000
vt 0.375000 0.000000
vt 0.375000 0.022349
vt 0.391667 0.000000
vt 0.393073 0.000000
vt 0.625000 0.522349
vt 0.647349 0.500000
vt 0.852651 0.500000
vt 0.875000 0.522349
vt 0.875000 0.727651
vt 0.852651 0.750000
vt 0.647349 0.750000
vt 0.625000 0.727651
vt 0.375000 0.522349
vt 0.391667 0.522359
vt 0.391667 0.727641
vt 0.375000 0.727651
vt 0.408333 0.027965
vt 0.425000 0.027924
vt 0.425000 0.222076
vt 0.408333 0.222035
vt 0.608333 0.022359
vt 0.625000 0.022349
vt 0.625000 0.227651
vt 0.608333 0.227641
vt 0.375000 0.772349
vt 0.391667 0.772359
vt 0.391667 0.977641
vt 0.375000 0.977651
vt 0.375000 0.272349
vt 0.391667 0.272359
vt 0.391667 0.477641
vt 0.375000 0.477651
vt 0.475000 0.027904
vt 0.475000 0.222096
vt 0.525000 0.027904
vt 0.525000 0.222096
vt 0.575000 0.027924
vt 0.575000 0.222076
vt 0.575000 0.777924
vt 0.591667 0.777965
vt 0.591667 0.972035
vt 0.575000 0.972076
vt 0.591667 0.027965
vt 0.591667 0.222035
vt 0.408333 0.527965
vt 0.425000 0.527924
vt 0.425000 0.722076
vt 0.408333 0.722035
vt 0.475000 0.527904
vt 0.475000 0.722096
vt 0.525000 0.527904
vt 0.525000 0.722096
vt 0.575000 0.527924
vt 0.591667 0.527965
vt 0.591667 0.722035
vt 0.575000 0.722076
vt 0.408333 0.277965
vt 0.425000 0.277924
vt 0.425000 0.472076
vt 0.408333 0.472035
vt 0.475000 0.277904
vt 0.475000 0.472096
vt 0.525000 0.277904
vt 0.525000 0.472096
vt 0.408333 0.777965
vt 0.425000 0.777924
vt 0.425000 0.972076
vt 0.408333 0.972035
vt 0.475000 0.777904
vt 0.475000 0.972096
vt 0.525000 0.777904
vt 0.525000 0.972096
vt 0.591667 0.277965
vt 0.608333 0.272359
vt 0.608333 0.477641
vt 0.591667 0.472035
vt 0.575000 0.277924
vt 0.575000 0.472076
vt 0.608333 0.522359
vt 0.608333 0.727641
vt 0.608333 0.772359
vt 0.608333 0.977641
vt 0.125000 0.522349
vt 0.147349 0.500000
vt 0.352651 0.500000
vt 0.352651 0.750000
vt 0.147349 0.750000
vt 0.125000 0.727651
vt 0.625000 0.272349
vt 0.625000 0.477651
vt 0.391667 0.022359
vt 0.391667 0.227641
vt 0.625000 0.772349
vt 0.625000 0.977651
vt 0.608333 0.000000
vt 0.625000 0.000000
vt 0.375000 0.227651
vt 0.408333 0.000000
vt 0.425000 0.000000
vt 0.475000 0.000000
vt 0.525000 0.000000
vt 0.575000 0.000000
vt 0.591667 0.000000
vt 0.606927 0.000000
vt 0.375000 0.000000
vt 0.391667 0.000000
vt 0.375000 0.022349
vt 0.393073 0.000000
vn 0.0000 1.0000 0.0000
vn 1.0000 0.0000 0.0000
vn -1.0000 0.0000 0.0000
vn 0.0000 0.0000 1.0000
vn 0.0000 0.0000 -1.0000
vn -0.9462 -0.3236 0.0000
vn 0.0000 -0.3236 -0.9462
vn 0.0000 0.3236 -0.9462
vn 0.9462 -0.3236 0.0000
vn 0.0000 -0.3236 0.9462
vn 0.0000 -1.0000 -0.0000
vn 0.9462 0.3236 0.0000
vn -0.9462 0.3236 0.0000
vn 0.0000 0.3236 0.9462
vn -0.7071 -0.0001 0.7071
vn -0.7071 0.0001 -0.7071
vn 0.7071 0.0001 -0.7071
vn 0.7071 0.0001 0.7071
vn -0.7071 -0.0003 0.7071
vn -0.7071 0.0000 0.7071
vn -0.7071 0.0001 0.7071
vn -0.7071 0.0003 -0.7071
vn -0.7071 0.0000 -0.7071
vn -0.7071 -0.0001 -0.7071
vn 0.7071 0.0003 -0.7071
vn 0.7071 0.0000 -0.7071
vn 0.7071 -0.0001 -0.7071
vn 0.7071 0.0003 0.7071
vn 0.7071 0.0000 0.7071
vn 0.7071 -0.0001 0.7071
vn -0.7071 0.0003 0.7071
vn -0.6366 -0.4353 0.6366
vn -0.6366 -0.4353 -0.6366
vn 0.6366 -0.4353 -0.6366
vn 0.6366 -0.4353 0.6366
vn -0.7071 -0.0003 -0.7071
vn -0.6366 0.4353 -0.6366
vn 0.7071 -0.0003 -0.7071
vn 0.6366 0.4353 -0.6366
vn 0.7071 -0.0003 0.7071
vn 0.6366 0.4353 0.6366
vn -0.6366 0.4353 0.6366
g Cube.001_Cube.002_None
usemtl None
s off
f 39/35/19 40/36/19 31/37/19 32/38/19 27/39/19 28/40/19 35/41/19 36/42/19
f 38/43/20 96/44/20 99/45/20 33/46/20
f 103/47/21 42/48/21 56/49/21 90/50/21
f 75/51/21 27/52/21 32/53/21 78/54/21
f 34/55/22 100/56/22 101/57/22 25/58/22
f 30/59/23 92/60/23 95/61/23 37/62/23
f 42/48/21 44/63/21 54/64/21 56/49/21
f 44/63/21 46/65/21 52/66/21 54/64/21
f 46/65/21 48/67/21 50/68/21 52/66/21
f 65/69/22 88/70/22 73/71/22 47/72/22
f 74/73/24 75/51/24 78/54/24 79/74/24
f 93/75/20 63/76/20 72/77/20 98/78/20
f 63/76/20 61/79/20 70/80/20 72/77/20
f 61/79/20 59/81/20 68/82/20 70/80/20
f 57/83/20 84/84/20 87/85/20 66/86/20
f 89/87/23 55/88/23 64/89/23 94/90/23
f 55/88/23 53/91/23 62/92/23 64/89/23
f 53/91/23 51/93/23 60/94/23 62/92/23
f 97/95/22 71/96/22 41/97/22 104/98/22
f 71/96/22 69/99/22 43/100/22 41/97/22
f 69/99/22 67/101/22 45/102/22 43/100/22
f 67/101/22 65/69/22 47/72/22 45/102/22
f 48/67/21 74/73/21 79/74/21 50/68/21
f 80/103/25 77/104/25 82/105/25 83/106/25
f 59/81/20 57/83/20 66/86/20 68/82/20
f 92/60/26 89/87/26 94/90/26 95/61/26
f 51/93/23 49/107/23 58/108/23 60/94/23
f 84/84/27 81/109/27 86/110/27 87/85/27
f 49/107/23 80/103/23 83/106/23 58/108/23
f 88/70/28 85/111/28 76/112/28 73/71/28
f 29/113/29 30/114/29 37/115/29 38/43/29 33/46/29 34/116/29 25/117/29 26/118/29
f 96/44/30 93/75/30 98/78/30 99/45/30
f 77/104/23 31/119/23 40/120/23 82/105/23
f 102/121/31 103/47/31 90/50/31 91/122/31
f 81/109/20 39/35/20 36/42/20 86/110/20
f 100/56/32 97/95/32 104/98/32 101/57/32
f 85/111/22 35/123/22 28/124/22 76/112/22
f 76/125/33 28/126/33 27/52/33 75/51/33
f 92/60/34 30/59/34 29/127/34 91/122/34
f 96/44/35 38/43/35 37/62/35 95/61/35
f 100/56/36 34/55/36 33/46/36 99/45/36
f 104/128/37 41/129/37 42/48/37 103/47/37
f 41/129/33 43/130/33 44/63/33 42/48/33
f 43/130/38 45/131/38 46/65/38 44/63/38
f 45/131/39 47/132/39 48/67/39 46/65/39
f 80/103/40 49/107/40 50/68/40 79/74/40
f 49/107/34 51/93/34 52/66/34 50/68/34
f 51/93/41 53/91/41 54/64/41 52/66/41
f 53/91/42 55/88/42 56/49/42 54/64/42
f 84/84/43 57/83/43 58/108/43 83/106/43
f 57/83/35 59/81/35 60/94/35 58/108/35
f 59/81/44 61/79/44 62/92/44 60/94/44
f 61/79/45 63/76/45 64/89/45 62/92/45
f 88/70/46 65/69/46 66/86/46 87/85/46
f 65/69/36 67/101/36 68/82/36 66/86/36
f 67/101/47 69/99/47 70/80/47 68/82/47
f 69/99/48 71/96/48 72/77/48 70/80/48
f 47/132/49 73/133/49 74/73/49 48/67/49
f 73/133/50 76/134/50 75/51/50 74/73/50
f 31/119/42 77/104/42 78/54/42 32/53/42
f 77/104/51 80/103/51 79/74/51 78/54/51
f 39/35/45 81/109/45 82/105/45 40/120/45
f 81/109/52 84/84/52 83/106/52 82/105/52
f 35/123/48 85/111/48 86/110/48 36/42/48
f 85/111/53 88/70/53 87/85/53 86/110/53
f 55/88/54 89/87/54 90/50/54 56/49/54
f 89/87/55 92/60/55 91/122/55 90/50/55
f 63/76/56 93/75/56 94/90/56 64/89/56
f 93/75/57 96/44/57 95/61/57 94/90/57
f 71/96/58 97/95/58 98/78/58 72/77/58
f 97/95/59 100/56/59 99/45/59 98/78/59
f 25/135/39 101/136/39 102/121/39 26/137/39
f 101/138/60 104/128/60 103/47/60 102/121/60
f 26/137/21 102/121/21 91/122/21 29/127/21
f 119/139/19 116/140/19 115/141/19 108/142/19 107/143/19 112/144/19 111/145/19 120/146/19
f 118/147/21 113/148/21 179/149/21 176/150/21
f 183/151/20 170/152/20 136/153/20 122/154/20
f 155/155/20 158/156/20 112/157/20 107/158/20
f 114/159/22 105/160/22 181/161/22 180/162/22
f 110/163/23 117/164/23 175/165/23 172/166/23
f 122/154/20 136/153/20 134/167/20 124/168/20
f 124/168/20 134/167/20 132/169/20 126/170/20
f 126/170/20 132/169/20 130/171/20 128/172/20
f 145/173/22 127/174/22 153/175/22 168/176/22
f 154/177/27 159/178/27 158/156/27 155/155/27
f 173/179/21 178/180/21 152/181/21 143/182/21
f 143/182/21 152/181/21 150/183/21 141/184/21
f 141/184/21 150/183/21 148/185/21 139/186/21
f 137/187/21 146/188/21 167/189/21 164/190/21
f 169/191/23 174/192/23 144/193/23 135/194/23
f 135/194/23 144/193/23 142/195/23 133/196/23
f 133/196/23 142/195/23 140/197/23 131/198/23
f 177/199/22 184/200/22 121/201/22 151/202/22
f 151/202/22 121/201/22 123/203/22 149/204/22
f 149/204/22 123/203/22 125/205/22 147/206/22
f 147/206/22 125/205/22 127/174/22 145/173/22
f 128/172/20 130/171/20 159/178/20 154/177/20
f 160/207/25 163/208/25 162/209/25 157/210/25
f 139/186/21 148/185/21 146/188/21 137/187/21
f 172/166/26 175/165/26 174/192/26 169/191/26
f 131/198/23 140/197/23 138/211/23 129/212/23
f 164/190/24 167/189/24 166/213/24 161/214/24
f 129/212/23 138/211/23 163/208/23 160/207/23
f 168/176/28 153/175/28 156/215/28 165/216/28
f 109/217/29 106/218/29 105/219/29 114/220/29 113/148/29 118/147/29 117/221/29 110/222/29
f 176/150/31 179/149/31 178/180/31 173/179/31
f 157/210/23 162/209/23 120/223/23 111/224/23
f 182/225/30 171/226/30 170/152/30 183/151/30
f 161/214/21 166/213/21 116/140/21 119/139/21
f 180/162/32 181/161/32 184/200/32 177/199/32
f 165/216/22 156/215/22 108/227/22 115/228/22
f 156/229/48 155/155/48 107/158/48 108/230/48
f 172/166/35 171/226/35 109/231/35 110/163/35
f 176/150/34 175/165/34 117/164/34 118/147/34
f 180/162/39 179/149/39 113/148/39 114/159/39
f 184/232/58 183/151/58 122/154/58 121/233/58
f 121/233/48 122/154/48 124/168/48 123/234/48
f 123/234/47 124/168/47 126/170/47 125/235/47
f 125/235/36 126/170/36 128/172/36 127/236/36
f 160/207/43 159/178/43 130/171/43 129/212/43
f 129/212/35 130/171/35 132/169/35 131/198/35
f 131/198/44 132/169/44 134/167/44 133/196/44
f 133/196/45 134/167/45 136/153/45 135/194/45
f 164/190/40 163/208/40 138/211/40 137/187/40
f 137/187/34 138/211/34 140/197/34 139/186/34
f 139/186/41 140/197/41 142/195/41 141/184/41
f 141/184/42 142/195/42 144/193/42 143/182/42
f 168/176/49 167/189/49 146/188/49 145/173/49
f 145/173/39 146/188/39 148/185/39 147/206/39
f 147/206/38 148/185/38 150/183/38 149/204/38
f 149/204/33 150/183/33 152/181/33 151/202/33
f 127/236/46 128/172/46 154/177/46 153/237/46
f 153/237/53 154/177/53 155/155/53 156/238/53
f 111/224/45 112/157/45 158/156/45 157/210/45
f 157/210/52 158/156/52 159/178/52 160/207/52
f 119/139/42 120/223/42 162/209/42 161/214/42
f 161/214/51 162/209/51 163/208/51 164/190/51
f 115/228/33 116/140/33 166/213/33 165/216/33
f 165/216/50 166/213/50 167/189/50 168/176/50
f 135/194/56 136/153/56 170/152/56 169/191/56
f 169/191/57 170/152/57 171/226/57 172/166/57
f 143/182/54 144/193/54 174/192/54 173/179/54
f 173/179/55 174/192/55 175/165/55 176/150/55
f 151/202/37 152/181/37 178/180/37 177/199/37
f 177/199/60 178/180/60 179/149/60 180/162/60
f 105/239/36 106/240/36 182/225/36 181/241/36
f 181/242/59 182/225/59 183/151/59 184/232/59
f 106/240/20 109/231/20 171/226/20 182/225/20
f 199/243/19 196/244/19 195/245/19 188/246/19 187/247/19 192/248/19 191/249/19 200/250/19
f 198/251/20 193/252/20 259/253/20 256/254/20
f 263/255/21 250/256/21 216/257/21 202/258/21
f 235/259/21 238/260/21 192/261/21 187/262/21
f 194/263/23 185/264/23 261/265/23 260/266/23
f 190/267/22 197/268/22 255/269/22 252/270/22
f 202/258/21 216/257/21 214/271/21 204/272/21
f 204/272/21 214/271/21 212/273/21 206/274/21
f 206/274/21 212/273/21 210/275/21 208/276/21
f 225/277/23 207/278/23 233/279/23 248/280/23
f 234/281/24 239/282/24 238/260/24 235/259/24
f 253/283/20 258/284/20 232/285/20 223/286/20
f 223/286/20 232/285/20 230/287/20 221/288/20
f 221/288/20 230/287/20 228/289/20 219/290/20
f 217/291/20 226/292/20 247/293/20 244/294/20
f 249/295/22 254/296/22 224/297/22 215/298/22
f 215/298/22 224/297/22 222/299/22 213/300/22
f 213/300/22 222/299/22 220/301/22 211/302/22
f 257/303/23 264/304/23 201/305/23 231/306/23
f 231/306/23 201/305/23 203/307/23 229/308/23
f 229/308/23 203/307/23 205/309/23 227/310/23
f 227/310/23 205/309/23 207/278/23 225/277/23
f 208/276/21 210/275/21 239/282/21 234/281/21
f 240/311/28 243/312/28 242/313/28 237/314/28
f 219/290/20 228/289/20 226/292/20 217/291/20
f 252/270/32 255/269/32 254/296/32 249/295/32
f 211/302/22 220/301/22 218/315/22 209/316/22
f 244/294/27 247/293/27 246/317/27 241/318/27
f 209/316/22 218/315/22 243/312/22 240/311/22
f 248/280/25 233/279/25 236/319/25 245/320/25
f 189/321/29 186/322/29 185/323/29 194/324/29 193/252/29 198/251/29 197/325/29 190/326/29
f 256/254/30 259/253/30 258/284/30 253/283/30
f 237/314/22 242/313/22 200/327/22 191/328/22
f 262/329/31 251/330/31 250/256/31 263/255/31
f 241/318/20 246/317/20 196/244/20 199/243/20
f 260/266/26 261/265/26 264/304/26 257/303/26
f 245/320/23 236/319/23 188/331/23 195/332/23
f 236/333/42 235/259/42 187/262/42 188/334/42
f 252/270/39 251/330/39 189/335/39 190/267/39
f 256/254/36 255/269/36 197/268/36 198/251/36
f 260/266/35 259/253/35 193/252/35 194/263/35
f 264/336/54 263/255/54 202/258/54 201/337/54
f 201/337/42 202/258/42 204/272/42 203/338/42
f 203/338/41 204/272/41 206/274/41 205/339/41
f 205/339/34 206/274/34 208/276/34 207/340/34
f 240/311/49 239/282/49 210/275/49 209/316/49
f 209/316/39 210/275/39 212/273/39 211/302/39
f 211/302/38 212/273/38 214/271/38 213/300/38
f 213/300/33 214/271/33 216/257/33 215/298/33
f 244/294/46 243/312/46 218/315/46 217/291/46
f 217/291/36 218/315/36 220/301/36 219/290/36
f 219/290/47 220/301/47 222/299/47 221/288/47
f 221/288/48 222/299/48 224/297/48 223/286/48
f 248/280/43 247/293/43 226/292/43 225/277/43
f 225/277/35 226/292/35 228/289/35 227/310/35
f 227/310/44 228/289/44 230/287/44 229/308/44
f 229/308/45 230/287/45 232/285/45 231/306/45
f 207/340/40 208/276/40 234/281/40 233/341/40
f 233/341/51 234/281/51 235/259/51 236/342/51
f 191/328/33 192/261/33 238/260/33 237/314/33
f 237/314/50 238/260/50 239/282/50 240/311/50
f 199/243/48 200/327/48 242/313/48 241/318/48
f 241/318/53 242/313/53 243/312/53 244/294/53
f 195/332/45 196/244/45 246/317/45 245/320/45
f 245/320/52 246/317/52 247/293/52 248/280/52
f 215/298/37 216/257/37 250/256/37 249/295/37
f 249/295/60 250/256/60 251/330/60 252/270/60
f 223/286/58 224/297/58 254/296/58 253/283/58
f 253/283/59 254/296/59 255/269/59 256/254/59
f 231/306/56 232/285/56 258/284/56 257/303/56
f 257/303/57 258/284/57 259/253/57 260/266/57
f 185/343/34 186/344/34 262/329/34 261/345/34
f 261/346/55 262/329/55 263/255/55 264/336/55
f 186/344/21 189/335/21 251/330/21 262/329/21
f 279/347/19 280/348/19 271/349/19 272/350/19 267/351/19 268/352/19 275/353/19 276/354/19
f 278/355/21 336/356/21 339/357/21 273/358/21
f 343/359/20 282/360/20 296/361/20 330/362/20
f 315/363/20 267/364/20 272/365/20 318/366/20
f 274/367/23 340/368/23 341/369/23 265/370/23
f 270/371/22 332/372/22 335/373/22 277/374/22
f 282/360/20 284/375/20 294/376/20 296/361/20
f 284/375/20 286/377/20 292/378/20 294/376/20
f 286/377/20 288/379/20 290/380/20 292/378/20
f 305/381/23 328/382/23 313/383/23 287/384/23
f 314/385/27 315/363/27 318/366/27 319/386/27
f 333/387/21 303/388/21 312/389/21 338/390/21
f 303/388/21 301/391/21 310/392/21 312/389/21
f 301/391/21 299/393/21 308/394/21 310/392/21
f 297/395/21 324/396/21 327/397/21 306/398/21
f 329/399/22 295/400/22 304/401/22 334/402/22
f 295/400/22 293/403/22 302/404/22 304/401/22
f 293/403/22 291/405/22 300/406/22 302/404/22
f 337/407/23 311/408/23 281/409/23 344/410/23
f 311/408/23 309/411/23 283/412/23 281/409/23
f 309/411/23 307/413/23 285/414/23 283/412/23
f 307/413/23 305/381/23 287/384/23 285/414/23
f 288/379/20 314/385/20 319/386/20 290/380/20
f 320/415/28 317/416/28 322/417/28 323/418/28
f 299/393/21 297/395/21 306/398/21 308/394/21
f 332/372/32 329/399/32 334/402/32 335/373/32
f 291/405/22 289/419/22 298/420/22 300/406/22
f 324/396/24 321/421/24 326/422/24 327/397/24
f 289/419/22 320/415/22 323/418/22 298/420/22
f 328/382/25 325/423/25 316/424/25 313/383/25
f 269/425/29 270/426/29 277/427/29 278/355/29 273/358/29 274/428/29 265/429/29 266/430/29
f 336/356/31 333/387/31 338/390/31 339/357/31
f 317/416/22 271/431/22 280/432/22 322/417/22
f 342/433/30 343/359/30 330/362/30 331/434/30
f 321/421/21 279/347/21 276/354/21 326/422/21
f 340/368/26 337/407/26 344/410/26 341/369/26
f 325/423/23 275/435/23 268/436/23 316/424/23
f 316/437/45 268/438/45 267/364/45 315/363/45
f 332/372/36 270/371/36 269/439/36 331/434/36
f 336/356/39 278/355/39 277/374/39 335/373/39
f 340/368/34 274/367/34 273/358/34 339/357/34
f 344/440/56 281/441/56 282/360/56 343/359/56
f 281/441/45 283/442/45 284/375/45 282/360/45
f 283/442/44 285/443/44 286/377/44 284/375/44
f 285/443/35 287/444/35 288/379/35 286/377/35
f 320/415/46 289/419/46 290/380/46 319/386/46
f 289/419/36 291/405/36 292/378/36 290/380/36
f 291/405/47 293/403/47 294/376/47 292/378/47
f 293/403/48 295/400/48 296/361/48 294/376/48
f 324/396/49 297/395/49 298/420/49 323/418/49
f 297/395/39 299/393/39 300/406/39 298/420/39
f 299/393/38 301/391/38 302/404/38 300/406/38
f 301/391/33 303/388/33 304/401/33 302/404/33
f 328/382/40 305/381/40 306/398/40 327/397/40
f 305/381/34 307/413/34 308/394/34 306/398/34
f 307/413/41 309/411/41 310/392/41 308/394/41
f 309/411/42 311/408/42 312/389/42 310/392/42
f 287/444/43 313/445/43 314/385/43 288/379/43
f 313/445/52 316/446/52 315/363/52 314/385/52
f 271/431/48 317/416/48 318/366/48 272/365/48
f 317/416/53 320/415/53 319/386/53 318/366/53
f 279/347/33 321/421/33 322/417/33 280/432/33
f 321/421/50 324/396/50 323/418/50 322/417/50
f 275/435/42 325/423/42 326/422/42 276/354/42
f 325/423/51 328/382/51 327/397/51 326/422/51
f 295/400/58 329/399/58 330/362/58 296/361/58
f 329/399/59 332/372/59 331/434/59 330/362/59
f 303/388/37 333/387/37 334/402/37 304/401/37
f 333/387/60 336/356/60 335/373/60 334/402/60
f 311/408/54 337/407/54 338/390/54 312/389/54
f 337/407/55 340/368/55 339/357/55 338/390/55
f 265/447/35 341/448/35 342/433/35 266/449/35
f 341/450/57 344/440/57 343/359/57 342/433/57
f 266/449/20 342/433/20 331/434/20 269/439/20
